<?xml version="1.0" standalone="no"?><!DOCTYPE svg PUBLIC "-//W3C//DTD SVG 1.1//EN" "http://www.w3.org/Graphics/SVG/1.1/DTD/svg11.dtd"><svg t="1704334844112" class="icon" viewBox="0 0 1024 1024" version="1.1" xmlns="http://www.w3.org/2000/svg" p-id="8642" xmlns:xlink="http://www.w3.org/1999/xlink" width="16" height="16"><path d="M691.264315 443.308525c-4.233418-2.908236-9.380648-4.614088-14.892175-4.614088s-10.658757 1.705851-14.922874 4.614088L497.838977 606.173846c-10.324136 10.32209-27.042913 10.32209-37.381375 0L301.338604 447.572642c-4.843308-5.376451-11.81714-8.771781-19.61371-8.771781-14.602579 0-26.433022 11.831466-26.433022 26.434046 0 5.953595 1.979074 11.42112 5.298679 15.835663l5.298679 5.299703 175.884846 175.86745c20.647249 20.650319 54.114478 20.650319 74.763774 0l177.590698-177.556928 1.794879-1.811252c4.264117-4.690836 6.884804-10.903328 6.884804-17.740036C702.808232 456.069153 698.238147 448.075085 691.264315 443.308525z" fill="#AFB1B3" p-id="8643"></path></svg>