<?xml version="1.0" standalone="no"?><!DOCTYPE svg PUBLIC "-//W3C//DTD SVG 1.1//EN" "http://www.w3.org/Graphics/SVG/1.1/DTD/svg11.dtd"><svg t="1704446082382" class="icon" viewBox="0 0 1024 1024" version="1.1" xmlns="http://www.w3.org/2000/svg" p-id="11129" xmlns:xlink="http://www.w3.org/1999/xlink" width="16" height="16"><path d="M241.85631092 827.0726736c-7.90991446 0-15.83658723-2.88242646-22.10418894-8.68079599-13.17201858-12.20003756-13.94290009-32.77922182-1.7428625-45.95124038L461.05478815 510.27389578 218.00925948 248.12391265c-12.21679586-13.17201858-11.42915607-33.75120286 1.7428625-45.9512404 13.20553518-12.20003756 33.75120286-11.42915607 45.96799871 1.74286249L529.26104215 488.16970684c11.56322243 12.46817027 11.56322243 31.74020763 0 44.22513618L265.72012069 816.6490151a32.4524351 32.4524351 0 0 1-23.86380977 10.4236585z" fill="#AFB1B3" p-id="11130"></path><path d="M516.91017997 827.0726736c-7.90991446 0-15.83658723-2.88242646-22.10418896-8.68079599-13.17201858-12.20003756-13.94290009-32.77922182-1.74286251-45.95124038l243.04552868-262.14998315L493.0631285 248.12391265c-12.21679586-13.17201858-11.42915607-33.75120286 1.74286251-45.9512404 13.18877686-12.20003756 33.75120286-11.42915607 45.96799871 1.74286249l263.55767976 284.27093039c11.56322243 12.46817027 11.56322243 31.74020763 0 44.2251362L540.77398972 816.6490151a32.4524351 32.4524351 0 0 1-23.86380975 10.4236585z" fill="#AFB1B3" p-id="11131"></path></svg>