<?xml version="1.0" standalone="no"?><!DOCTYPE svg PUBLIC "-//W3C//DTD SVG 1.1//EN" "http://www.w3.org/Graphics/SVG/1.1/DTD/svg11.dtd"><svg t="1712629385231" class="icon" viewBox="0 0 1024 1024" version="1.1" xmlns="http://www.w3.org/2000/svg" p-id="3241" xmlns:xlink="http://www.w3.org/1999/xlink" width="32" height="32"><path d="M321.28 119.222857H115.145143c-22.710857 0-40.722286 16.713143-40.722286 38.564572 0 21.851429 18.011429 39.003429 40.722286 39.003428h188.141714c15.433143 0 26.569143 6.857143 33.426286 20.992l282.002286 634.294857c15.853714 35.986286 42.002286 52.717714 81.865142 52.717715h208.694858c22.308571 0 40.301714-17.152 40.301714-38.582858s-18.011429-39.003429-40.283429-39.003428h-189.44c-17.554286 0-28.288-6.418286-35.145143-20.571429L403.565714 172.8c-14.573714-33.426286-44.982857-53.577143-82.285714-53.577143z m587.995429 0H632.027429c-22.729143 0-40.301714 16.274286-40.301715 38.125714 0 21.869714 17.572571 38.582857 40.283429 38.582858h277.302857c22.710857 0 39.862857-16.713143 39.862857-38.582858 0-21.851429-17.152-38.144-39.862857-38.144z" p-id="3242" fill="#AFB1B3"></path></svg>