<?xml version="1.0" standalone="no"?><!DOCTYPE svg PUBLIC "-//W3C//DTD SVG 1.1//EN" "http://www.w3.org/Graphics/SVG/1.1/DTD/svg11.dtd"><svg t="1712629499295" class="icon" viewBox="0 0 1024 1024" version="1.1" xmlns="http://www.w3.org/2000/svg" p-id="7767" xmlns:xlink="http://www.w3.org/1999/xlink" width="32" height="32"><path d="M758.216 745.72H249.184c-44.008 0-79.816-35.808-79.816-79.816V279.712c0-44.008 35.808-79.816 79.816-79.816h439.496v127.872c0 8.912 5.168 15.12 9.792 15.12h139.56v323.016c0 44.008-35.808 79.816-79.816 79.816zM249.184 230.288a49.472 49.472 0 0 0-49.416 49.424v386.192a49.48 49.48 0 0 0 49.416 49.424h509.032a49.48 49.48 0 0 0 49.424-49.424V373.28H698.472c-22.16 0-40.184-20.408-40.184-45.504V230.288H249.184z" fill="#AFB1B3" p-id="7768"></path><path d="M834.232 278.352c0 6.44-4.304 11.656-9.608 11.656h-75.68c-5.304 0-9.608-5.216-9.608-11.656v-69.64c0-6.44 4.304-11.656 9.608-11.656h75.68c5.304 0 9.608 5.216 9.608 11.656v69.64z" fill="#AFB1B3" p-id="7769"></path><path d="M316.528 617.808V464.88h-54.616v-31.136h146.272v31.136h-54.496v152.928h-37.16zM579.072 617.808H538.64l-16.072-41.816h-73.576l-15.192 41.816h-39.424l71.688-184.064h39.304l73.704 184.064z m-68.432-72.824l-25.36-68.304-24.856 68.304h50.216zM598.904 433.744h73.568c14.568 0 25.432 0.608 32.584 1.824s13.552 3.744 19.208 7.592c5.648 3.848 10.352 8.976 14.128 15.384 3.768 6.4 5.648 13.584 5.648 21.528 0 8.624-2.32 16.528-6.968 23.728A43.2 43.2 0 0 1 718.176 520c11.216 3.256 19.832 8.832 25.864 16.696 6.024 7.864 9.04 17.12 9.04 27.752a54.808 54.808 0 0 1-5.832 24.424c-3.896 7.904-9.208 14.224-15.944 18.952-6.744 4.736-15.048 7.64-24.92 8.728-6.2 0.672-21.144 1.096-44.832 1.256h-62.648V433.744z m37.168 30.632v42.56h24.352c14.488 0 23.488-0.2 27-0.624 6.36-0.76 11.36-2.952 15-6.592s5.464-8.432 5.464-14.376c0-5.688-1.568-10.32-4.704-13.872-3.144-3.552-7.808-5.712-14-6.464-3.688-0.416-14.272-0.632-31.768-0.632h-21.344z m0 73.2v49.208h34.4c13.392 0 21.888-0.376 25.496-1.128 5.52-1.008 10.024-3.456 13.496-7.344 3.48-3.896 5.208-9.112 5.208-15.632 0-5.52-1.336-10.208-4.016-14.064s-6.552-6.656-11.616-8.416-16.048-2.632-32.952-2.632h-30.016z" p-id="7770" fill="#AFB1B3"></path></svg>