<?xml version="1.0" encoding="UTF-8"?>
<svg width="16px" height="16px" viewBox="0 0 150 150" version="1.1" xmlns="http://www.w3.org/2000/svg" xmlns:xlink="http://www.w3.org/1999/xlink">
    <title>数据库代码生成</title>
    <defs>
        <linearGradient x1="100%" y1="0%" x2="0%" y2="100%" id="linearGradient-1">
            <stop stop-color="#AFB1B3" offset="0%"></stop>
            <stop stop-color="#AFB1B3" offset="100%"></stop>
        </linearGradient>
        <path d="M0,91.678 L0,91.6666666 C0,110.083333 29.8333334,125 66.6666666,125 L67.29,124.997 L64,145 L93.4438848,139.874915 L133.333,100.008 L133.333333,116.666667 C133.333333,135.083333 103.5,150 66.6666666,150 C29.8333334,150 0,135.083333 0,116.666667 L0,91.678 Z M118.562301,71.2598019 L137.740301,90.437061 L93.9035772,134.272091 L91.2480621,136.919732 L68,141 L72.0299058,117.702318 L74.7255775,115.094832 L118.562301,71.2598019 Z M0,50.012 L0.00892716669,50.5514386 C0.597366668,68.7135085 30.2016667,83.3333334 66.6666666,83.3333334 C82.5703056,83.3333334 97.1689491,80.5524501 108.624638,75.909663 L76.2881785,107.989126 C73.1467246,108.215941 69.9342402,108.333333 66.6666666,108.333333 C29.8333334,108.333333 0,93.4166666 0,75 L0,50.012 Z M135.093853,60.221058 L148.779471,73.9009657 C148.779471,73.9009657 151.525662,76.6483461 148.779471,79.3957264 L140.684684,87.4902009 L121.509275,68.314237 L129.600176,60.221058 C132.347662,57.4736775 135.093853,60.221058 135.093853,60.221058 Z M66.6666666,0 C103.5,0 133.333333,14.9166668 133.333333,33.3333334 C133.333333,51.75 103.5,66.6666666 66.6666666,66.6666666 C29.8333334,66.6666666 0,51.7500002 0,33.3333334 C0,14.9166666 29.8333332,0 66.6666666,0 Z" id="path-2"></path>
    </defs>
    <g id="数据库代码生成" stroke="none" stroke-width="1" fill="none" fill-rule="evenodd">
        <g id="形状结合" fill-rule="nonzero">
            <use fill="#000000" xlink:href="#path-2"></use>
            <use fill="url(#linearGradient-1)" xlink:href="#path-2"></use>
        </g>
    </g>
</svg>
