<?xml version="1.0" standalone="no"?><!DOCTYPE svg PUBLIC "-//W3C//DTD SVG 1.1//EN" "http://www.w3.org/Graphics/SVG/1.1/DTD/svg11.dtd"><svg t="1702367288951" class="icon" viewBox="0 0 1024 1024" version="1.1" xmlns="http://www.w3.org/2000/svg" p-id="13496" xmlns:xlink="http://www.w3.org/1999/xlink" width="16" height="16"><path d="M980.54826667 787.71010332l-38.83614777-21.3598811c1.94180779-5.82542222 1.94180779-11.65084445 1.94180665-19.41807446 0-5.82542222 0-11.65084445-1.94180665-19.41807331l40.77795556-23.30168889c11.65084445-5.82542222 13.59265223-19.41807445 7.76722887-29.12711111l-42.71976221-75.73048889c-5.82542222-11.65084445-19.41807445-13.59265223-29.1271111-7.76723001L875.69066667 616.83105223c-9.70903666-7.76723001-21.3598811-13.59265223-31.06891889-19.41807445v-46.60337778c0-11.65084445-9.70903666-21.3598811-21.35988111-21.3598811h-87.38133333c-11.65084445 0-21.3598811 9.70903666-21.3598811 21.3598811v46.60337778c-11.65084445 5.82542222-21.3598811 11.65084445-31.0689189 19.41807445L642.67377778 593.52936334c-11.65084445-5.82542222-23.30168889-1.94180779-29.12711111 7.76722887l-42.71976334 75.73048889c-5.82542222 11.65084445-1.94180779 23.30168889 7.76723001 29.12711111l40.77795556 23.30168889c-1.94180779 5.82542222-1.94180779 11.65084445-1.94180779 19.41807445 0 5.82542222 0 11.65084445 1.94180779 19.41807445l-40.77795556 23.3016889c-11.65084445 5.82542222-13.59265223 19.41807445-7.76723001 29.1271111l42.71976334 75.7304889c5.82542222 11.65084445 19.41807445 13.59265223 29.12711111 7.76722886l40.77795556-23.30168888c9.70903666 7.76723001 21.3598811 13.59265223 31.0689189 19.41807445v46.60337778c0 11.65084445 9.70903666 21.3598811 21.3598811 21.3598811h87.38133333c11.65084445 0 21.3598811-9.70903666 21.35988111-21.3598811v-46.60337778c11.65084445-5.82542222 21.3598811-11.65084445 31.06891889-19.41807445l40.77795556 23.30168888c11.65084445 5.82542222 23.30168889 1.94180779 29.12711111-7.76722886l42.71976335-75.7304889c7.76723001-13.59265223 1.94180779-25.24349667-7.76723002-33.01072668zM778.60029669 822.66263666c-42.71976334 0-75.73048889-33.01072555-75.7304889-75.7304889s33.01072555-75.73048889 75.7304889-75.73048888 75.73048889 33.01072555 75.73048888 75.73048888-33.01072555 75.73048889-75.73048888 75.7304889z" p-id="13497" fill="#AFB1B3"></path><path d="M487.32918557 746.93214776c0-161.17001443 130.10109667-291.27111111 291.27111112-291.2711111 66.02145223 0 126.2174811 21.3598811 174.76266666 58.25422222V278.95656334c0-54.37060779-40.77795555-89.32314112-93.20675556-89.32314112H553.35063666c-75.73048889 0-54.37060779-133.98471111-133.98471111-133.98471111H106.73493334c-48.54518557 0-89.32314112 40.77795555-89.32314112 89.32314112v623.32017777c0 48.54518557 40.77795555 89.32314112 89.32314112 89.32313999h401.95413333C495.09641445 824.60444444 487.32918557 785.76829667 487.32918557 746.93214776z" p-id="13498" fill="#AFB1B3"></path></svg>
