<?xml version="1.0" standalone="no"?><!DOCTYPE svg PUBLIC "-//W3C//DTD SVG 1.1//EN" "http://www.w3.org/Graphics/SVG/1.1/DTD/svg11.dtd"><svg t="1712713484815" class="icon" viewBox="0 0 1024 1024" version="1.1" xmlns="http://www.w3.org/2000/svg" p-id="8917" xmlns:xlink="http://www.w3.org/1999/xlink" width="32" height="32"><path d="M939.9 485.2l-377.6-380c-15.7-13.4-31.3-20.1-51.5-20.1-17.8 0-35.8 6.8-49.2 20.1L84 485.2c-13.4 13.4-20.1 29-20.1 49.1 0 17.9 6.8 35.8 20.1 49.2 13.3 13.4 31.3 20.2 51.3 20.2 17.8 0 35.8-6.7 49.2-20.1l326.2-328.5 328.5 328.5c13.4 13.4 29 20.1 51.3 20.1 17.9 0 33.5-6.7 49.2-20.1 13.4-13.4 17.8-31.3 20.1-49.2-1.9-20.2-6.5-35.8-19.9-49.2zM510.9 322c6.8 0 11.2 4.5 17.9 13.4l292.7 290.5v232.5c0 53.6-26.9 80.5-80.5 80.5H607V623.8c0-4.4-2.3-11.2-6.7-13.4-2.3-4.5-6.7-6.7-13.4-6.7H432.7c-4.4 0-11.2 2.3-13.4 6.7-4.4 2.3-6.7 8.9-6.7 13.4v315.1H278.5c-53.6 0-80.5-26.9-80.5-80.5v-228l295-297.2c6.7-6.7 13.5-11.2 17.9-11.2z" p-id="8918" fill="#AFB1B3"></path></svg>