<?xml version="1.0" standalone="no"?><!DOCTYPE svg PUBLIC "-//W3C//DTD SVG 1.1//EN" "http://www.w3.org/Graphics/SVG/1.1/DTD/svg11.dtd"><svg t="1704446096090" class="icon" viewBox="0 0 1024 1024" version="1.1" xmlns="http://www.w3.org/2000/svg" p-id="12231" xmlns:xlink="http://www.w3.org/1999/xlink" width="16" height="16"><path d="M780.46785973 827.0726736c7.90991446 0 15.83658723-2.88242646 22.10418894-8.68079599 13.17201858-12.20003756 13.94290009-32.77922182 1.74286253-45.95124038L561.26938249 510.27389578l243.04552871-262.14998313c12.21679586-13.17201858 11.42915607-33.75120286-1.74286253-45.9512404-13.20553518-12.20003756-33.75120286-11.42915607-45.96799869 1.74286249L493.0631285 488.16970684c-11.56322243 12.46817027-11.56322243 31.74020763 0 44.22513618L756.62080826 816.66577341c6.40166806 6.90441689 15.1159806 10.40690018 23.84705147 10.40690019z" fill="#AFB1B3" p-id="12232"></path><path d="M505.43074899 827.0726736c7.90991446 0 15.83658723-2.88242646 22.10418896-8.68079599 13.17201858-12.20003756 13.94290009-32.77922182 1.74286252-45.95124038L286.21551347 510.27389578 529.26104215 248.12391265c12.21679586-13.17201858 11.42915607-33.75120286-1.74286249-45.9512404-13.18877686-12.20003756-33.75120286-11.42915607-45.9679987 1.74286249L218.00925948 488.16970684c-11.56322243 12.46817027-11.56322243 31.74020763 0 44.22513618L481.56693924 816.66577341a32.44405596 32.44405596 0 0 0 23.86380975 10.40690019z" fill="#AFB1B3" p-id="12233"></path></svg>