<?xml version="1.0" standalone="no"?><!DOCTYPE svg PUBLIC "-//W3C//DTD SVG 1.1//EN"
        "http://www.w3.org/Graphics/SVG/1.1/DTD/svg11.dtd">
<svg t="1760102714786" class="icon" viewBox="0 0 1024 1024" version="1.1" xmlns="http://www.w3.org/2000/svg"
     p-id="17222" xmlns:xlink="http://www.w3.org/1999/xlink" width="16" height="16">
    <path d="M170.65984 42.65984l298.65984 0q17.67424 0 30.16704 12.4928t12.4928 30.16704-12.4928 30.16704-30.16704 12.4928l-298.65984 0q-17.67424 0-30.16704 12.4928t-12.4928 30.16704l0 682.65984q0 17.67424 12.4928 30.16704t30.16704 12.4928l682.65984 0q17.67424 0 30.16704-12.4928t12.4928-30.16704l0-298.65984q0-17.67424 12.4928-30.16704t30.16704-12.4928 30.16704 12.4928 12.4928 30.16704l0 298.65984q0 53.00224-37.49888 90.50112t-90.50112 37.49888l-682.65984 0q-53.00224 0-90.50112-37.49888t-37.49888-90.50112l0-682.65984q0-53.00224 37.49888-90.50112t90.50112-37.49888zM682.65984 42.65984l256 0q17.67424 0 30.16704 12.4928t12.4928 30.16704l0 256q0 17.67424-12.4928 30.16704t-30.16704 12.4928-30.16704-12.4928-12.4928-30.16704l0-153.00608-353.9968 353.9968q-12.32896 12.32896-30.0032 12.32896-18.3296 0-30.49472-12.16512t-12.16512-30.49472q0-17.67424 12.32896-30.0032l353.9968-353.9968-153.00608 0q-17.67424 0-30.16704-12.4928t-12.4928-30.16704 12.4928-30.16704 30.16704-12.4928z"
          fill="#ffffff" p-id="17223"></path>
</svg>