<?xml version="1.0" standalone="no"?><!DOCTYPE svg PUBLIC "-//W3C//DTD SVG 1.1//EN" "http://www.w3.org/Graphics/SVG/1.1/DTD/svg11.dtd"><svg t="1760014308504" class="icon" viewBox="0 0 1024 1024" version="1.1" xmlns="http://www.w3.org/2000/svg" p-id="9296" xmlns:xlink="http://www.w3.org/1999/xlink" width="16" height="16"><path d="M899.477962 560.041156c0-10.946306-8.287757-16.418948-24.863271-16.418948L364.210026 543.622208c-12.509918 0-25.879414 3.361561-40.10951 10.085706-14.230096 6.724145-25.41074 14.934131-33.541931 24.628934l-137.921209 170.291454c-5.629207 7.505951-8.444323 13.761422-8.444323 18.764366 0 10.946306 8.287757 16.418948 24.863271 16.418948l510.404666 0c12.509918 0 25.958208-3.440355 40.34487-10.321066 14.386662-6.880711 25.488511-15.168468 33.307593-24.863271l137.921209-170.291454C896.662847 571.45716 899.477962 565.358255 899.477962 560.041156zM364.210026 483.5746l360.285646 0 0-75.05951c0-12.509918-4.378727-23.143093-13.135158-31.900547-8.756431-8.757454-19.390629-13.135158-31.900547-13.135158l-270.214235 0c-12.509918 0-23.143093-4.378727-31.900547-13.135158s-13.135158-19.390629-13.135158-31.900547l0-30.023804c0-12.509918-4.378727-23.143093-13.135158-31.900547s-19.390629-13.135158-31.900547-13.135158l-150.119019 0c-12.509918 0-23.143093 4.378727-31.900547 13.135158s-13.135158 19.390629-13.135158 31.900547l0 400.160819 120.095215-147.773601c13.760398-16.575514 31.900547-30.258141 54.4184-41.047882C321.051063 488.969471 342.943676 483.5746 364.210026 483.5746zM959.52557 560.041156c0 19.390629-7.192819 38.154995-21.579481 56.294121L799.555182 786.627754c-13.44829 16.575514-31.587416 30.258141-54.4184 41.047882-22.830985 10.789741-44.722574 16.184611-65.676815 16.184611l-510.404666 0c-28.7723 0-53.480029-10.321066-74.121138-30.962176-20.641109-20.641109-30.962176-45.348837-30.962176-74.121138l0-450.357058c0-28.7723 10.321066-53.480029 30.962176-74.121138s45.348837-30.962176 74.121138-30.962176l150.119019 0c28.7723 0 53.480029 10.321066 74.121138 30.962176s30.962176 45.348837 30.962176 74.121138l0 15.011902 255.202333 0c28.7723 0 53.480029 10.321066 74.121138 30.962176 20.641109 20.641109 30.962176 45.348837 30.962176 74.121138l0 75.05951 90.071412 0c16.888645 0 32.369222 3.831258 46.442752 11.493775s24.551162 18.686594 31.43085 33.073256C957.180152 538.149567 959.52557 548.782741 959.52557 560.041156z" p-id="9297" fill="#ffffff"></path></svg>