<?xml version="1.0" standalone="no"?><!DOCTYPE svg PUBLIC "-//W3C//DTD SVG 1.1//EN" "http://www.w3.org/Graphics/SVG/1.1/DTD/svg11.dtd"><svg t="1711352114404" class="icon" viewBox="0 0 1024 1024" version="1.1" xmlns="http://www.w3.org/2000/svg" p-id="56499" xmlns:xlink="http://www.w3.org/1999/xlink" width="16" height="16"><path d="M818.541714 610.450286a50.468571 50.468571 0 0 0-14.482285 44.617143l44.617142 259.949714c3.437714 20.626286 0 35.401143-16.896 47.689143a54.930286 54.930286 0 0 1-57.856 4.169143l-238.445714-128.512a50.468571 50.468571 0 0 0-46.957714 0l-228.425143 128.512a54.930286 54.930286 0 0 1-57.856-4.169143c-16.896-12.288-30.427429-27.062857-26.843429-47.689143l54.637715-265.289143a50.468571 50.468571 0 0 0-14.555429-44.617143L16.603429 448.512a54.857143 54.857143 0 0 1 30.427428-93.622857l258.706286-45.421714a50.468571 50.468571 0 0 0 37.961143-27.574858L462.774857 30.646857a54.857143 54.857143 0 0 1 98.523429 0l114.395428 251.318857a50.468571 50.468571 0 0 0 38.034286 27.574857l263.314286 45.348572a54.857143 54.857143 0 0 1 30.354285 93.696l-188.854857 161.865143z" fill="#FADB14" p-id="56500"></path></svg>