<?xml version="1.0" standalone="no"?><!DOCTYPE svg PUBLIC "-//W3C//DTD SVG 1.1//EN" "http://www.w3.org/Graphics/SVG/1.1/DTD/svg11.dtd"><svg t="1703757199034" class="icon" viewBox="0 0 1024 1024" version="1.1" xmlns="http://www.w3.org/2000/svg" p-id="14233" xmlns:xlink="http://www.w3.org/1999/xlink" width="16" height="16"><path d="M960 192l-192-192H128a64 64 0 0 0-64 64v896a64 64 0 0 0 64 64h768a64 64 0 0 0 64-64V192z m-90.496 0H768V90.496L869.504 192zM896 960H128V64h576v128a64 64 0 0 0 64 64h128v704z" fill="#AFB1B3" p-id="14234"></path><path d="M282.176 469.056c20.608 0 27.648 1.984 28.032 2.048a18.624 18.624 0 0 1 8.96 5.504c6.592 6.912 11.84 16.704 15.552 29.12 4.864 16.064 7.36 35.456 7.36 57.536 0 19.072-1.664 35.776-5.056 49.6a109.696 109.696 0 0 1-10.752 29.632 46.72 46.72 0 0 1-9.088 12.032 23.296 23.296 0 0 1-8.192 3.84c-5.76 1.728-13.632 2.688-22.656 2.688h-28.672v-192h24.512m0-64H193.664v320h92.672c15.552 0 29.312-1.792 41.28-5.44s22.208-8.96 30.656-16.064a106.24 106.24 0 0 0 23.36-29.056c7.168-12.288 12.992-27.776 17.536-46.592a275.84 275.84 0 0 0 6.848-64.64c0-28.48-3.328-53.888-10.048-76.096a135.04 135.04 0 0 0-30.464-54.592 81.792 81.792 0 0 0-37.632-22.912c-10.56-3.072-25.792-4.608-45.696-4.608zM536.128 469.056c20.608 0 27.648 1.984 28.032 2.048a18.624 18.624 0 0 1 8.96 5.504c6.592 6.912 11.84 16.704 15.552 29.12 4.864 16.064 7.36 35.456 7.36 57.536 0 19.072-1.664 35.776-5.056 49.6-3.84 15.744-7.936 24.768-10.752 29.632a46.72 46.72 0 0 1-9.088 12.032 23.296 23.296 0 0 1-8.192 3.84c-5.76 1.728-13.632 2.688-22.656 2.688h-28.608v-192h24.448m0-64H447.68v320h92.672c15.552 0 29.312-1.792 41.28-5.44s22.208-8.96 30.656-16.064a106.24 106.24 0 0 0 23.36-29.056c7.168-12.288 12.992-27.776 17.536-46.592a275.84 275.84 0 0 0 6.848-64.64c0-28.48-3.328-53.888-10.048-76.096a135.04 135.04 0 0 0-30.464-54.592 82.112 82.112 0 0 0-37.632-22.912c-10.56-3.072-25.792-4.608-45.76-4.608zM776.32 661.056v-256h-64v320h129.984v-64z" fill="#AFB1B3" p-id="14235"></path></svg>