<?xml version="1.0" standalone="no"?><!DOCTYPE svg PUBLIC "-//W3C//DTD SVG 1.1//EN" "http://www.w3.org/Graphics/SVG/1.1/DTD/svg11.dtd"><svg t="1709805409123" class="icon" viewBox="0 0 1024 1024" version="1.1" xmlns="http://www.w3.org/2000/svg" p-id="4659" xmlns:xlink="http://www.w3.org/1999/xlink" width="16" height="16"><path d="M803.498667 334.336a341.333333 341.333333 0 1 0 34.133333 280.291556 28.444444 28.444444 0 0 0-54.272-17.066667A284.558222 284.558222 0 0 1 227.555556 512a284.444444 284.444444 0 0 1 527.36-147.968 28.444444 28.444444 0 1 0 48.583111-29.696z" fill="#AFB1B3" p-id="4660"></path><path d="M796.444444 369.777778V227.555556a28.444444 28.444444 0 1 1 56.888889 0v170.666666a28.444444 28.444444 0 0 1-28.444444 28.444445h-170.666667a28.444444 28.444444 0 0 1 0-56.888889H796.444444z" fill="#AFB1B3" p-id="4661"></path></svg>