<?xml version="1.0" standalone="no"?><!DOCTYPE svg PUBLIC "-//W3C//DTD SVG 1.1//EN" "http://www.w3.org/Graphics/SVG/1.1/DTD/svg11.dtd"><svg t="1702965265791" class="icon" viewBox="0 0 1024 1024" version="1.1" xmlns="http://www.w3.org/2000/svg" p-id="8363" xmlns:xlink="http://www.w3.org/1999/xlink" width="16" height="16"><path d="M437 885.4c-9.4 0-18.6-3.7-25.5-10.5L226.7 690.1c-14.1-14.1-14.1-36.9 0-50.9 14.1-14.1 36.9-14.1 50.9 0L401 762.5V178c0-19.9 16.1-36 36-36s36 16.1 36 36v671.4c0 14.6-8.8 27.7-22.2 33.3-4.5 1.8-9.2 2.7-13.8 2.7zM586 560c-19.9 0-36-16.1-36-36V178c0-14.6 8.8-27.7 22.2-33.3 13.5-5.6 29-2.5 39.2 7.9l169 169.5c14 14.1 14 36.9-0.1 50.9s-36.9 14-50.9-0.1L622 265.1V524c0 19.9-16.1 36-36 36zM802 761H676c-19.9 0-36-16.1-36-36s16.1-36 36-36h126c19.9 0 36 16.1 36 36s-16.1 36-36 36zM802 653H676c-19.9 0-36-16.1-36-36s16.1-36 36-36h126c19.9 0 36 16.1 36 36s-16.1 36-36 36zM802 869H676c-19.9 0-36-16.1-36-36s16.1-36 36-36h126c19.9 0 36 16.1 36 36s-16.1 36-36 36z" p-id="8364" fill="#AFB1B3"></path><path d="M586.9 617m-36 0a36 36 0 1 0 72 0 36 36 0 1 0-72 0Z" p-id="8365" fill="#AFB1B3"></path><path d="M586.9 725m-36 0a36 36 0 1 0 72 0 36 36 0 1 0-72 0Z" p-id="8366" fill="#AFB1B3"></path><path d="M585.9 833m-36 0a36 36 0 1 0 72 0 36 36 0 1 0-72 0Z" p-id="8367" fill="#AFB1B3"></path></svg>
