<?xml version="1.0" standalone="no"?><!DOCTYPE svg PUBLIC "-//W3C//DTD SVG 1.1//EN" "http://www.w3.org/Graphics/SVG/1.1/DTD/svg11.dtd"><svg t="1711354069867" class="icon" viewBox="0 0 1024 1024" version="1.1" xmlns="http://www.w3.org/2000/svg" p-id="6034" xmlns:xlink="http://www.w3.org/1999/xlink" width="16" height="16"><path d="M291.224051 177.050733c-67.388455 39.101468-120.746125 92.154001-160.07301 159.160348C91.826906 403.217429 72.163464 476.389734 72.163464 555.733497c0 79.343762 19.663442 152.518817 58.987577 219.522415 39.326884 67.006347 92.684554 120.05888 160.07301 159.163097C358.607008 973.520477 432.199907 993.071211 512 993.071211s153.390243-19.550734 220.778698-58.652202c67.385706-39.104217 120.743376-92.15675 160.070261-159.163097C932.173094 708.252313 951.836536 635.077259 951.836536 555.736246c0-79.343762-19.663442-152.516068-58.987577-219.522416-39.326884-67.006347-92.684554-120.05888-160.07301-159.160348C671.624926 141.56692 605.363552 122.181125 533.991827 118.896096V88.657334h30.788557c7.389254-0.874175 13.195096-6.64703 13.195096-13.9923V44.046913C577.97548 36.701643 572.169638 30.928789 564.780384 30.928789h-101.162403c-7.389254 0-13.195096 5.772855-12.095505 13.120873v30.612623c-1.099591 7.348019 4.706251 13.120874 12.095505 13.120874h26.390192V118.896096c-71.371725 3.28228-137.633099 22.668075-198.786871 58.151888zM512 216.110966c63.941236 0 122.915069 15.559217 176.921498 46.674904 54.00368 31.115686 96.775034 73.315253 128.314062 126.595951 31.539029 53.283447 47.309917 111.465574 47.309917 174.551878 0 63.086304-15.770889 121.268431-47.309917 174.551878-31.539029 53.280698-74.310383 95.480265-128.314062 126.595951-54.006429 31.118435-112.980261 46.677652-176.921498 46.677653-63.941236 0-122.915069-15.559217-176.921498-46.677653-54.00368-31.115686-96.775034-73.315253-128.314062-126.595951-31.539029-53.283447-47.309917-111.465574-47.309917-174.551878 0-63.086304 15.770889-121.268431 47.309917-174.551878 31.539029-53.280698 74.310383-95.480265 128.314062-126.595951 54.006429-31.118435 112.980261-46.677652 176.921498-46.677653zM698.930528 539.489783h-159.440745v-244.659073h-65.97548v316.132511h225.416225v-71.473438z m-215.794801 453.581428v-2.748978 2.748978zM3.439005 510.625511H0.690027h2.748978zM510.625511 3.439005V0.690027v2.748978z m508.560995 508.560995v-2.748978 2.748978z m-508.560995 508.560995v-2.748979 2.748979z" p-id="6035" fill="#AFB1B3"></path></svg>