<?xml version="1.0" standalone="no"?><!DOCTYPE svg PUBLIC "-//W3C//DTD SVG 1.1//EN" "http://www.w3.org/Graphics/SVG/1.1/DTD/svg11.dtd"><svg t="1712804719365" class="icon" viewBox="0 0 1024 1024" version="1.1" xmlns="http://www.w3.org/2000/svg" p-id="45222" xmlns:xlink="http://www.w3.org/1999/xlink" width="32" height="32"><path d="M366.976 145.92c7.04 0 12.8 5.76 12.8 12.8v57.6a12.8 12.8 0 0 1-12.8 12.8h-44.8c-19.2 0-32 6.4-32 38.4v153.6c0 44.8-12.8 76.8-44.8 96 32 25.6 44.8 57.6 44.8 96v160c0 32 12.8 38.4 32 38.4h44.8c7.04 0 12.8 5.76 12.8 12.8v57.6a12.8 12.8 0 0 1-12.8 12.8h-64c-32 0-64-12.8-83.2-38.4-19.2-25.6-25.6-51.2-25.6-89.6v-153.6c0-19.2-6.4-32-12.8-38.4-6.4-6.4-19.2-12.8-44.8-12.8l-3.392-0.448a12.8 12.8 0 0 1-9.408-12.352v-57.6c0-7.04 5.76-12.8 12.8-12.8 25.6 0 44.8-6.4 44.8-19.2 6.4-6.4 12.8-19.2 12.8-38.4v-153.6c0-32 12.8-64 32-83.2 19.2-25.6 44.8-38.4 83.2-38.4z m345.6-6.4c32 0 64 12.8 83.2 38.4 12.8 25.6 25.6 51.2 25.6 89.6v160c0 19.2 6.4 32 12.8 38.4 6.4 6.4 19.2 12.8 44.8 12.8a6.4 6.4 0 0 1 6.4 6.4v70.4a12.8 12.8 0 0 1-12.8 12.8c-19.2 0-38.4 6.4-44.8 12.8-6.4 6.4-12.8 19.2-12.8 38.4v153.6c0 38.4-6.4 70.4-25.6 89.6-19.2 19.2-44.8 32-83.2 32h-57.6a12.8 12.8 0 0 1-12.8-12.8v-57.6c0-7.04 5.76-12.8 12.8-12.8h44.8c12.8 0 32-6.4 32-38.4v-160c0-44.8 12.8-76.8 44.8-96-32-25.6-44.8-57.6-44.8-96v-160c0-32-12.8-38.4-32-38.4h-44.8a12.8 12.8 0 0 1-12.8-12.8v-57.6c0-7.04 5.76-12.8 12.8-12.8z" p-id="45223" fill="#AFB1B3"></path></svg>