<?xml version="1.0" standalone="no"?><!DOCTYPE svg PUBLIC "-//W3C//DTD SVG 1.1//EN" "http://www.w3.org/Graphics/SVG/1.1/DTD/svg11.dtd"><svg t="1764812471278" class="icon" viewBox="0 0 1024 1024" version="1.1" xmlns="http://www.w3.org/2000/svg" p-id="4015" xmlns:xlink="http://www.w3.org/1999/xlink" width="16" height="16"><path d="M424.64 115.392a170.432 170.432 0 0 1 289.664 139.008 166.464 166.464 0 0 1 137.728 282.752l-307.84 307.712 94.912 94.848a36.736 36.736 0 0 1-51.712 51.84l-120.768-120.768a36.544 36.544 0 0 1 0-51.712l333.568-333.568a93.312 93.312 0 0 0-131.648-132.096l-3.008 2.88v0.128L428.352 592.96a36.544 36.544 0 0 1-56.064-5.44c-0.576-0.768-0.96-1.664-1.472-2.432a36.288 36.288 0 0 1-4.352-23.68l0.32-1.92a36.352 36.352 0 0 1 5.12-12.608l4.8-5.76 236.992-236.416 6.72-7.488A97.28 97.28 0 0 0 476.288 167.04L136.576 507.008a36.544 36.544 0 0 1-51.712-51.712l339.84-339.84z m94.912 94.4a36.544 36.544 0 0 1 51.008 52.352L329.024 497.856a98.368 98.368 0 1 0 138.624 139.52l240.64-243.584a36.672 36.672 0 0 1 52.096 51.328l-240.64 243.584A171.584 171.584 0 1 1 277.952 445.44l241.6-235.648z" p-id="4016" fill="#afb1b3"></path></svg>