<?xml version="1.0" standalone="no"?><!DOCTYPE svg PUBLIC "-//W3C//DTD SVG 1.1//EN" "http://www.w3.org/Graphics/SVG/1.1/DTD/svg11.dtd"><svg t="1699601262199" class="icon" viewBox="0 0 1024 1024" version="1.1" xmlns="http://www.w3.org/2000/svg" p-id="20639" xmlns:xlink="http://www.w3.org/1999/xlink" width="16" height="16"><path d="M512.000512 65.300238c-246.715031 0-446.674179 200.01236-446.674179 446.729437 0 246.716055 199.959148 446.671109 446.674179 446.671109 246.716055 0 446.672132-199.956078 446.672132-446.672132C958.672644 265.311575 758.716566 65.300238 512.000512 65.300238zM553.880341 900.627135 553.880341 749.337453l-55.837726 0 0 153.273872c-195.056488-6.880711-354.169345-157.369144-374.642632-348.705913l151.264099 0 0-55.837726L121.414769 498.067686c7.211239-204.479091 172.175361-369.46675 376.626823-376.679012l0 153.330154 55.837726 0L553.879318 123.372865c191.335746 20.478404 341.823156 179.613774 348.703867 374.694821L749.311359 498.067686l0 55.837726 151.289682 0C881.109104 736.025263 736.000192 881.135198 553.880341 900.627135z" fill="#AFB1B3" p-id="20640"></path></svg>
