<?xml version="1.0" encoding="UTF-8"?>
<svg width="16px" height="16px" viewBox="0 0 150 150" version="1.1" xmlns="http://www.w3.org/2000/svg" xmlns:xlink="http://www.w3.org/1999/xlink">
    <title>AI代码生成 </title>
    <defs>
        <linearGradient x1="100%" y1="14.1577778%" x2="0%" y2="85.8422222%" id="linearGradient-1">
            <stop stop-color="#4DF837" offset="0%"></stop>
            <stop stop-color="#10C359" offset="100%"></stop>
        </linearGradient>
        <path d="M140,0 C145.522847,-1.01453063e-15 150,4.4771525 150,10 L150,117 C150,122.522847 145.522847,127 140,127 L10,127 C4.4771525,127 6.76353751e-16,122.522847 0,117 L0,10 C-6.76353751e-16,4.4771525 4.4771525,-6.09089673e-15 10,0 L140,0 Z M124.484375,94.8076923 L69.515625,94.8076923 C67.5739989,94.8076923 66,96.3833056 66,98.3269231 C66,100.270541 67.5739989,101.846154 69.515625,101.846154 L124.484375,101.846154 C126.426001,101.846154 128,100.270541 128,98.3269231 C128,96.3833056 126.426001,94.8076923 124.484375,94.8076923 Z M28.0390625,45.1630769 C27.0724766,44.322523 25.7258102,44.074467 24.5236331,44.5155347 C23.3214559,44.9566024 22.4538815,46.0170429 22.258858,47.2837806 C22.0638344,48.5505183 22.5722029,49.8232301 23.5859375,50.6061538 L46.0390625,69 L23.5859375,87.3938462 C22.1501958,88.6423832 21.9666304,90.8074873 23.1716398,92.2803763 C24.3766491,93.7532653 26.5332873,93.9998578 28.0390625,92.8369231 L53.8203125,71.7215385 C54.6348181,71.0530998 55.1070325,70.0543203 55.1070325,69 C55.1070325,67.9456797 54.6348181,66.9469002 53.8203125,66.2784615 Z M70.7781116,53.2081176 C68.3967949,53.203461 66.3770922,54.9581831 66.0465499,57.318918 C65.7160076,59.6796529 67.1759691,61.9226055 69.4668047,62.5734877 L69.4668047,71.4042306 C69.4671879,73.1288554 70.396859,74.7191604 71.8986829,75.5642265 L94.6605861,88.3878972 C96.1158306,89.2065781 97.8927873,89.2038623 99.3455279,88.3807371 L121.995374,75.5642265 C123.491116,74.7169179 124.415331,73.1294275 124.415331,71.409004 L124.415331,68.7215941 C124.415331,68.0625286 123.881611,67.5282505 123.223234,67.5282505 L123.008657,67.547344 C122.443244,67.6521062 122.033118,68.1459769 122.033521,68.7215941 L122.033521,71.409004 L122.014447,71.6930198 C121.924921,72.4470539 121.482305,73.1134451 120.82235,73.4878086 L98.1725043,86.3043192 L97.8935536,86.4403604 C97.2208567,86.7126466 96.4609041,86.6634527 95.8288413,86.3067059 L73.0693223,73.4830352 L72.8309029,73.3279005 C72.2184096,72.8786944 71.8562774,72.1643088 71.8557674,71.4042306 L71.850999,62.6331549 C74.2148781,62.0882831 75.7934058,59.8537155 75.5187636,57.4410582 C75.2441215,55.0284009 73.203846,53.2066376 70.7781116,53.2081176 Z M93.7688974,45.9979446 L90.3618837,45.9979446 L81.187504,69.9149377 L84.5468338,69.9149377 L87.1670633,62.6713419 L97.1568375,62.6713419 L99.9463449,69.9149377 L103.548862,69.9149377 L93.7688974,45.9979446 Z M109.773994,45.9979446 L106.612552,45.9979446 L106.612552,69.9149377 L109.773994,69.9149377 L109.773994,45.9979446 Z M99.3455279,27.618066 C97.8923698,26.7956821 96.1154134,26.7938716 94.6605861,27.6132926 L71.9010671,40.4369633 C70.3992432,41.2820294 69.4691889,42.8723344 69.4691889,44.5969592 L69.4691889,47.2414087 L69.4882624,47.4562105 C69.5917937,48.0711984 70.1509232,48.5026677 70.7713881,48.4463734 C71.391853,48.3900791 71.8643776,47.8650087 71.8557674,47.2414087 L71.8557674,44.5969592 L71.8724568,44.3129434 C71.9630268,43.5579814 72.4075389,42.8914025 73.0693223,42.5181546 L95.8288413,29.6920972 L96.1101762,29.5584427 C96.7829014,29.2883813 97.5418177,29.3393214 98.1725043,29.6968706 L120.82235,42.5133812 L121.06077,42.6685159 C121.671686,43.117732 122.03281,43.8309879 122.033521,44.5897991 L122.028753,53.3608748 C119.705386,53.9669948 118.194573,56.2078354 118.502172,58.5915081 C118.80977,60.9751809 120.83983,62.7581372 123.240793,62.7533447 C125.641757,62.7485329 127.664683,60.9574702 127.962764,58.5725861 C128.260845,56.1877019 126.741099,53.9529227 124.415331,53.3561015 L124.417715,44.5897991 C124.417552,42.8688776 123.492035,41.28127 121.995374,40.4345766 Z M70.7781116,55.5948141 C72.0948657,55.5948141 73.1623059,56.6633704 73.1623059,57.9815014 C73.1623059,59.2996324 72.0948657,60.3681887 70.7781116,60.3681887 C69.4613574,60.3681887 68.3939172,59.2996324 68.3939172,57.9815014 C68.3939172,56.6633704 69.4613574,55.5948141 70.7781116,55.5948141 Z M123.230387,55.5948141 C124.547141,55.5948141 125.614581,56.6633704 125.614581,57.9815014 C125.614581,59.2996324 124.547141,60.3681887 123.230387,60.3681887 C121.913632,60.3681887 120.846192,59.2996324 120.846192,57.9815014 C120.846192,56.6633704 121.913632,55.5948141 123.230387,55.5948141 Z M91.9926726,48.5087396 C92.413269,49.9331505 92.8864589,51.341467 93.4112682,52.7307894 L93.6878348,53.4682758 L96.181702,60.0937196 L88.0825939,60.0937196 L90.7052077,53.0768591 C91.2583408,51.5636993 91.6874957,50.0433795 91.9926726,48.5087396 Z M14.5,7 C12.0147186,7 10,9.01471863 10,11.5 C10,13.9852814 12.0147186,16 14.5,16 C16.9852814,16 19,13.9852814 19,11.5 C19,9.01471863 16.9852814,7 14.5,7 Z M27.5,7 C25.0147186,7 23,9.01471863 23,11.5 C23,13.9852814 25.0147186,16 27.5,16 C29.9852814,16 32,13.9852814 32,11.5 C32,9.01471863 29.9852814,7 27.5,7 Z M40.5,7 C38.0147186,7 36,9.01471863 36,11.5 C36,13.9852814 38.0147186,16 40.5,16 C42.9852814,16 45,13.9852814 45,11.5 C45,9.01471863 42.9852814,7 40.5,7 Z" id="path-2"></path>
    </defs>
    <g id="AI代码生成-" stroke="none" stroke-width="1" fill="none" fill-rule="evenodd">
        <g id="代码生成-(1)" transform="translate(0.000000, 11.000000)" fill-rule="nonzero">
            <g id="形状">
                <use fill="#000000" xlink:href="#path-2"></use>
                <use fill="url(#linearGradient-1)" xlink:href="#path-2"></use>
            </g>
        </g>
    </g>
</svg>
