<?xml version="1.0" encoding="UTF-8"?>
<svg width="16px" height="16px" viewBox="0 0 150 150" version="1.1" xmlns="http://www.w3.org/2000/svg" xmlns:xlink="http://www.w3.org/1999/xlink">
    <title>代码生成</title>
    <defs>
        <linearGradient x1="100%" y1="14.1577778%" x2="0%" y2="85.8422222%" id="linearGradient-1">
            <stop stop-color="#4DF837" offset="0%"></stop>
            <stop stop-color="#10C359" offset="100%"></stop>
        </linearGradient>
        <path d="M150,34 L150,115.446118 C150,121.468141 145.941177,126.431059 140.797059,126.956235 L139.870588,127 L10.1205883,127 C4.84411765,127 0.502941177,122.378447 0.044117604,116.496471 L0,115.446118 L0,34 L150,34 Z M79.096,55.85 C78.196,55.85 77.656,56.246 77.476,57.038 L68.566,95.54 C68.422,96.152 68.35,96.512 68.35,96.62 C68.35,98.024 68.944,98.726 70.132,98.726 C70.996,98.726 71.554,98.204 71.806,97.16 L80.392,60.062 C80.716,58.658 80.878,57.974 80.878,58.01 C80.878,56.57 80.284,55.85 79.096,55.85 Z M56.2,57.524 C55.912,57.524 55.282,57.758 54.31,58.226 L23.584,73.184 C22.612,73.652 22.126,74.192 22.126,74.804 C22.126,75.38 22.612,75.902 23.584,76.37 L54.31,91.544 C55.246,92.012 55.876,92.246 56.2,92.246 C57.352,92.246 57.928,91.652 57.928,90.464 C57.928,89.78 57.352,89.15 56.2,88.574 L28.984,75.344 C28.588,75.164 28.39,74.984 28.39,74.804 C28.39,74.588 28.588,74.39 28.984,74.21 L56.2,61.196 C57.352,60.656 57.928,59.99 57.928,59.198 C57.928,58.082 57.352,57.524 56.2,57.524 Z M93.082,57.524 C91.93,57.524 91.354,58.082 91.354,59.198 C91.354,59.99 91.93,60.656 93.082,61.196 L120.298,74.21 C120.694,74.39 120.892,74.588 120.892,74.804 C120.892,74.984 120.694,75.164 120.298,75.344 L93.082,88.574 C91.93,89.15 91.354,89.78 91.354,90.464 C91.354,91.652 91.93,92.246 93.082,92.246 C93.406,92.246 94.036,92.012 94.972,91.544 L125.698,76.37 C126.67,75.902 127.156,75.38 127.156,74.804 C127.156,74.192 126.67,73.652 125.698,73.184 L94.972,58.226 C94,57.758 93.37,57.524 93.082,57.524 Z M52.7787548,18.6100031 C50.3456326,18.6147526 48.3692603,16.6860539 48.3643948,14.3021252 C48.3595473,11.9181965 50.3280456,9.98178304 52.7611678,9.97701593 C55.19429,9.97226643 57.1706622,11.9009651 57.1755277,14.2848938 C57.1803752,16.6688225 55.211877,18.6052359 52.7787548,18.6100031 L52.7787548,18.6100031 Z M35.2972212,18.6100029 C33.7232671,18.6130724 32.2671975,17.7931994 31.4774997,16.4592133 C30.6878019,15.1252273 30.6844498,13.4797926 31.4687062,12.1427285 C32.2529625,10.8056644 33.7056801,9.98010278 35.2796342,9.97701593 C37.7127564,9.97226643 39.6891286,11.9009651 39.6939941,14.2848938 C39.6988417,16.6688225 37.7303434,18.6052359 35.2972212,18.6100029 Z M17.6486106,18.6100029 C16.0762273,18.6130724 14.6216092,17.7940204 13.8326968,16.4613673 C13.0437844,15.1287141 13.0404324,13.4849216 13.8239033,12.1491904 C14.6073743,10.8134591 16.0586403,9.98871857 17.6310236,9.9856317 C20.0617176,9.98088216 22.0361213,11.9076521 22.0409868,14.2892017 C22.0458344,16.6707512 20.0793046,18.605236 17.6486106,18.6100029 L17.6486106,18.6100029 Z M149.956032,11.5709362 C149.472388,5.09190121 145.145973,0.00861578016 139.878649,0 L10.1125572,0 L9.18923676,0.0516944286 C4.04502291,0.646180357 0,6.09994257 0,12.7512924 L0,30 L150,30 L150,12.7426766 L149.956032,11.5709362 Z" id="path-2"></path>
    </defs>
    <g id="代码生成" stroke="none" stroke-width="1" fill="none" fill-rule="evenodd">
        <g id="编组" transform="translate(0.000000, 11.000000)" fill-rule="nonzero">
            <g id="形状结合">
                <use fill="#000000" xlink:href="#path-2"></use>
                <use fill="url(#linearGradient-1)" xlink:href="#path-2"></use>
            </g>
        </g>
    </g>
</svg>
