<?xml version="1.0" encoding="UTF-8"?>
<svg width="16px" height="16px" viewBox="0 0 150 150" version="1.1" xmlns="http://www.w3.org/2000/svg" xmlns:xlink="http://www.w3.org/1999/xlink">
    <title>复制 </title>
    <defs>
        <linearGradient x1="88.2088505%" y1="0%" x2="11.7911495%" y2="100%" id="linearGradient-1">
            <stop stop-color="#4DF837" offset="0%"></stop>
            <stop stop-color="#10C359" offset="100%"></stop>
        </linearGradient>
        <path d="M94.0909091,141.538462 L27.9090909,141.538462 C23.1818182,141.538462 18.4545455,137.753846 18.4545455,132.076923 L18.4545455,46.9230769 C18.4545455,41.2461538 23.1818182,37.4615385 27.9090909,37.4615385 L27.9090909,28 C17.5090909,28 9,36.5153846 9,46.9230769 L9,132.076923 C9,142.484615 17.5090909,151 27.9090909,151 L94.0909091,151 C104.490909,151 113,142.484615 113,132.076923 L103.545455,132.076923 C103.545455,136.807692 98.8181818,141.538462 94.0909091,141.538462 Z M103.181818,0 L55.9090909,0 C45.5090909,0 37,8.51538462 37,18.9230769 L37,104.076923 C37,114.484615 45.5090909,123 55.9090909,123 L122.090909,123 C132.490909,123 141,114.484615 141,104.076923 L141,37.8461538 L103.181818,0 Z M88.3,113 L50.7,113 C47.88,113 46,111.2 46,108.5 C46,105.8 47.88,104 50.7,104 L88.3,104 C91.12,104 93,105.8 93,108.5 C93,111.2 91.12,113 88.3,113 Z M117.25,95 L50.75,95 C47.9,95 46,93.2 46,90.5 C46,87.8 47.9,86 50.75,86 L117.25,86 C120.1,86 122,87.8 122,90.5 C122,93.2 120.1,95 117.25,95 Z M117.25,75 L50.75,75 C47.9,75 46,73.2 46,70.5 C46,67.8 47.9,66 50.75,66 L117.25,66 C120.1,66 122,67.8 122,70.5 C122,73.2 120.1,75 117.25,75 Z M104,37 L104,14 L127,37 L104,37 Z" id="path-2"></path>
    </defs>
    <g id="复制-" stroke="none" stroke-width="1" fill="none" fill-rule="evenodd">
        <g id="形状" fill-rule="nonzero">
            <use fill="#000000" xlink:href="#path-2"></use>
            <use fill="url(#linearGradient-1)" xlink:href="#path-2"></use>
        </g>
    </g>
</svg>
