<?xml version="1.0" encoding="UTF-8"?>
<svg width="235.571429px" height="44px" viewBox="0 0 235.571429 44" version="1.1" xmlns="http://www.w3.org/2000/svg"
     xmlns:xlink="http://www.w3.org/1999/xlink">
    <title>JARVIS备份</title>
    <defs>
        <linearGradient x1="100%" y1="0%" x2="0%" y2="100%" id="linearGradient-1">
            <stop stop-color="#FFFFFF" offset="0%"></stop>
            <stop stop-color="#AFB1B3" offset="100%"></stop>
        </linearGradient>
        <path d="M2,39.1030479 L16.8923077,39.1030479 C18.353602,39.1030479 19.7181929,38.7411708 20.9860806,38.0174165 C22.2539683,37.2936623 23.2639805,36.303822 24.0161172,35.0478955 C24.768254,33.791969 25.1443223,32.4189647 25.1443223,30.9288824 L25.1443223,2 L35.5238095,2 L35.5238095,30.9288824 C35.5238095,33.6536043 34.8361416,36.1654572 33.4608059,38.4644412 C32.0854701,40.7634253 30.2373626,42.5940977 27.9164835,43.9564586 C25.5956044,45.3188195 23.0598291,46 20.3091575,46 L2,46 L2,39.1030479 Z M69.4901088,46 L60.6810103,25.2173357 L54.7341951,39.1695962 L61.3505591,39.1904762 L64.2101245,46 L41.8095238,46 L60.7905638,2 L79.5238095,46 L69.4901088,46 Z M131.904762,16.2616279 C131.904762,18.9476744 131.234162,21.3992248 129.892962,23.6162791 C128.551763,25.8333333 126.734654,27.5600775 124.441635,28.7965116 L131.904762,46 L121.521281,46 L114.772019,30.5872093 L98.3531395,30.5872093 L98.3531395,46 L87.9047619,46 L87.9047619,2 L117.367889,2 C120.007023,2 122.440652,2.63953488 124.668774,3.91860465 C126.896896,5.19767442 128.659924,6.9244186 129.957859,9.09883721 C131.255794,11.2732558 131.904762,13.6608527 131.904762,16.2616279 Z M98.3809524,22.952381 L113.87515,22.952381 C115.941043,22.952381 117.71642,22.2389809 119.201281,20.8121807 C120.686141,19.3853805 121.428571,17.6438449 121.428571,15.5875741 C121.428571,13.5732679 120.686141,11.8527148 119.201281,10.4259146 C117.71642,8.99911438 115.941043,8.28571429 113.87515,8.28571429 L98.3809524,8.28571429 L98.3809524,22.952381 Z M162.680585,2 L153.871487,22.7826643 L147.924671,8.8304038 L145.071755,2 L135,2 L153.98104,46 L172.714286,2 L162.680585,2 Z M189.47619,46 L179,46 L179,2 L189.47619,2 L189.47619,46 Z M224.873016,20.2906977 C227.15873,20.2906977 229.275132,20.8662791 231.222222,22.0174419 C233.169312,23.1686047 234.714286,24.7248062 235.857143,26.6860465 C237,28.6472868 237.571429,30.8003876 237.571429,33.1453488 C237.571429,35.4903101 237,37.6434109 235.857143,39.6046512 C234.714286,41.5658915 233.169312,43.122093 231.222222,44.2732558 C229.275132,45.4244186 227.15873,46 224.873016,46 L197.444444,46 L197.444444,39.0930233 L221.444444,39.0930233 C223.095238,39.0930233 224.502646,38.5174419 225.666667,37.3662791 C226.830688,36.2151163 227.412698,34.8081395 227.412698,33.1453488 C227.412698,31.4825581 226.830688,30.0755814 225.666667,28.9244186 C224.502646,27.7732558 223.095238,27.1976744 221.444444,27.1976744 L208.174603,27.1976744 C205.888889,27.1976744 203.793651,26.6327519 201.888889,25.502907 C199.984127,24.373062 198.470899,22.8381783 197.349206,20.8982558 C196.227513,18.9583333 195.666667,16.8585271 195.666667,14.5988372 C195.666667,12.2965116 196.227513,10.1860465 197.349206,8.26744186 C198.470899,6.34883721 199.984127,4.8246124 201.888889,3.69476744 C203.793651,2.56492248 205.888889,2 208.174603,2 L235.031746,2 L235.031746,8.84302326 L211.539683,8.84302326 C209.973545,8.84302326 208.62963,9.40794574 207.507937,10.5377907 C206.386243,11.6676357 205.825397,13.0213178 205.825397,14.5988372 C205.825397,16.1763566 206.386243,17.5193798 207.507937,18.627907 C208.62963,19.7364341 209.973545,20.2906977 211.539683,20.2906977 L224.873016,20.2906977 Z"
              id="path-2"></path>
    </defs>
    <g id="页面-1" stroke="none" stroke-width="1" fill="none" fill-rule="evenodd">
        <g id="Jarvis主站" transform="translate(-201.000000, -165.000000)">
            <g id="JARVIS备份" transform="translate(199.000000, 163.000000)">
                <use fill="#37E544" xlink:href="#path-2"></use>
                <use fill="url(#linearGradient-1)" xlink:href="#path-2"></use>
            </g>
        </g>
    </g>
</svg>
