<?xml version="1.0" standalone="no"?><!DOCTYPE svg PUBLIC "-//W3C//DTD SVG 1.1//EN" "http://www.w3.org/Graphics/SVG/1.1/DTD/svg11.dtd"><svg t="1722841459993" class="icon" viewBox="0 0 1024 1024" version="1.1" xmlns="http://www.w3.org/2000/svg" p-id="9908" xmlns:xlink="http://www.w3.org/1999/xlink" width="16" height="16"><path d="M545.28 878.293333C320 873.6 212.693333 806.826667 230.186667 663.04c8.106667-66.773333 52.266667-106.026667 115.2-120.533333 30.08-7.04 61.013333-7.893333 89.6-5.333334 5.546667 0.426667 9.6 1.066667 12.16 1.493334l3.413333 0.64c1.493333 0.426667 4.48 1.066667 8.96 2.133333 7.68 1.706667 16.426667 3.413333 25.813333 4.906667 33.92 5.546667 68.266667 8.32 99.626667 6.613333 71.466667-3.84 107.946667-27.306667 109.653333-78.293333 2.133333-56.746667-42.026667-102.186667-122.666666-136.746667-29.653333-12.586667-61.866667-22.826667-93.866667-30.293333-10.666667-2.56-21.12-4.693333-32-6.613334a170.624 170.624 0 0 1-200.32 108.373334 170.944 170.944 0 0 1 40.746667-337.28c87.04 0.853333 159.573333 66.773333 168.533333 153.173333 10.026667 1.706667 23.893333 4.48 40.106667 8.32 36.053333 8.533333 72.32 19.84 106.453333 34.346667 106.24 45.44 172.16 113.493333 168.746667 209.28-3.626667 98.986667-75.733333 145.706667-181.546667 151.253333-37.546667 2.133333-77.226667-1.066667-116.053333-7.466667-13.013333-2.133333-26.24-4.693333-39.04-7.68l-5.973334-0.64c-21.12-1.92-44.373333-1.28-65.28 3.626667-34.56 8.106667-53.333333 24.746667-57.173333 55.893333-10.24 83.2 52.053333 124.16 226.986667 129.706667 5.546667-86.613333 75.52-155.306667 162.133333-159.786667 86.826667-4.266667 162.986667 57.173333 177.066667 142.933334 14.08 85.76-38.4 168.533333-121.813334 192.213333-83.2 24.106667-171.306667-18.56-204.373333-98.986667zM285.226667 338.133333c52.48 0 94.933333-42.453333 94.933333-94.933333s-42.453333-94.933333-94.933333-94.933333-94.933333 42.453333-94.933334 94.933333c0 52.266667 42.666667 94.933333 94.933334 94.933333z m418.133333 569.813334c52.48 0 94.933333-42.453333 94.933333-94.933334s-42.453333-94.933333-94.933333-94.933333-94.933333 42.453333-94.933333 94.933333c-0.213333 52.48 42.453333 94.933333 94.933333 94.933334z m0 0" fill="#666666" p-id="9909"></path><path d="M285.226667 157.866667c47.146667 0 85.333333 38.186667 85.333333 85.333333s-38.186667 85.333333-85.333333 85.333333-85.333333-38.186667-85.333334-85.333333 38.4-85.333333 85.333334-85.333333m0-85.333334c-94.293333 0-170.666667 76.373333-170.666667 170.666667s76.373333 170.666667 170.666667 170.666667 170.666667-76.373333 170.666666-170.666667-76.373333-170.666667-170.666666-170.666667zM703.36 720.853333c47.146667 0 85.546667 39.893333 85.546667 88.96s-38.4 88.96-85.546667 88.96-85.546667-39.893333-85.546667-88.96 38.4-88.96 85.546667-88.96m0-85.333333c-94.293333 0-170.88 78.08-170.88 174.293333s76.586667 174.293333 170.88 174.293334 170.88-78.08 170.88-174.293334-76.586667-174.293333-170.88-174.293333z" fill="#0099CC" p-id="9910"></path></svg>