<?xml version="1.0" standalone="no"?><!DOCTYPE svg PUBLIC "-//W3C//DTD SVG 1.1//EN"
        "http://www.w3.org/Graphics/SVG/1.1/DTD/svg11.dtd">
<svg t="1702457221110" class="icon" viewBox="0 0 1024 1024" version="1.1" xmlns="http://www.w3.org/2000/svg" p-id="5987"
     xmlns:xlink="http://www.w3.org/1999/xlink" width="15" height="15">
    <path d="M903.094857 277.211429L625.517714 10.24A36.790857 36.790857 0 0 0 600.137143 0h-334.994286A9.142857 9.142857 0 0 0 256 9.142857V73.142857c0 5.046857 4.096 9.142857 9.142857 9.142857h316.562286l250.294857 240.64v545.645715c0 5.046857 4.096 9.142857 9.142857 9.142857h64a9.142857 9.142857 0 0 0 9.142857-9.142857V303.542857a36.205714 36.205714 0 0 0-11.190857-26.331428z m-343.771428-120.173715A36.571429 36.571429 0 0 0 533.504 146.285714H146.285714a36.571429 36.571429 0 0 0-36.571428 36.571429v804.571428a36.571429 36.571429 0 0 0 36.571428 36.571429h585.142857a36.571429 36.571429 0 0 0 36.571429-36.571429V380.928a36.571429 36.571429 0 0 0-10.752-25.819429L559.323429 157.037714z m16.676571 630.418286c0 4.315429-3.876571 7.972571-8.557714 7.972571H310.272c-4.681143 0-8.557714-3.657143-8.557714-8.045714v-47.981714c0-4.315429 3.876571-7.972571 8.557714-7.972572h257.170286c4.681143 0 8.557714 3.657143 8.557714 8.045715v47.981714z m0-251.465143c0 4.388571-3.876571 8.045714-8.557714 8.045714h-96.548572v96.987429a8.045714 8.045714 0 0 1-8.045714 8.118857h-47.981714c-4.388571 0-8.045714-3.657143-8.045715-8.045714V543.890286h-96.548571c-4.681143 0-8.557714-3.657143-8.557714-7.972572v-47.981714c0-4.461714 3.876571-8.045714 8.557714-8.045714h96.548571V382.976c0-4.461714 3.657143-8.118857 8.045715-8.118857h47.981714c4.461714 0 8.045714 3.657143 8.045714 8.045714v97.060572h96.548572c4.681143 0 8.557714 3.584 8.557714 8.045714v47.981714z"
          fill="#AFB1B3" p-id="5988"></path>
</svg>
