<?xml version="1.0" encoding="UTF-8"?>
<svg width="72px" height="72px" viewBox="0 0 72 72" version="1.1" xmlns="http://www.w3.org/2000/svg" xmlns:xlink="http://www.w3.org/1999/xlink">
    <title>ftd</title>
    <g id="ftd" stroke="none" stroke-width="1" fill="none" fill-rule="evenodd">
        <g id="编组" transform="translate(3.000000, 8.000000)" fill-rule="nonzero">
            <path d="M25.7148638,8.53560062 C22.4912484,8.69890754 21.420846,9.51942482 20.3799894,10.4381677 C19.3391328,11.3569105 18.3767024,12.7789266 17.8863794,13.862735 C17.5287793,14.8932383 16.9923792,16.4389933 16.277179,18.5 L14.2803299,24.2543605 L9.85740241,37 L0,37 L8.45395004,12.6380814 C9.25020141,10.3435078 10.5595255,8.22819767 12.3819222,6.29215116 C14.204319,4.35610465 16.2976639,2.82340116 18.6619568,1.6940407 C21.0262498,0.564680233 23.8242618,0 25.7148638,0 L49,0 L46.0319163,8.51544002 C35.4441872,8.53612165 28.6718364,8.54284185 25.7148638,8.53560062 Z" id="路径" fill="#00B85D"></path>
            <path d="M56.6690955,19 C59.0276322,19 61.006991,19.5736434 62.6071719,20.7209302 C64.2073528,21.8682171 65.2481199,23.4278101 65.7294732,25.3997093 C66.2108264,27.3716085 66.0498193,29.5227713 65.2464518,31.8531977 L61.3532092,43.1468023 C58.6394647,50.7885191 53.4821796,53.7442787 51.4636714,54.6120532 C49.4451633,55.4798277 46.3781053,55.9317846 43.9140913,56 L31.7106823,55.9991037 L34.2654611,48.7152659 L43.6968384,48.7152659 C48.1766271,48.733046 50.9552399,46.2593374 52.5903382,43.1468023 L56.6690955,31.8531977 C57.1140375,30.5625 57.6832715,29.1754182 57.4722699,28.2567362 C57.2612682,27.3380541 57.0618227,26.9282034 56.1346538,26.3694394 C55.281042,25.9281227 53.776807,25.9900478 51.4636714,25.9900478 L40.0143675,25.9900478 L29.6860277,55.9991037 L21,56 L33.7550042,19 L56.6690955,19 Z" id="路径" fill="#00B85D"></path>
            <polygon id="路径备份" fill="#FDD316" points="29.7973303 19 27.3650552 25.9900478 16.339317 25.9900478 18.7843774 19"></polygon>
        </g>
    </g>
</svg>