<?xml version="1.0" standalone="no"?><!DOCTYPE svg PUBLIC "-//W3C//DTD SVG 1.1//EN" "http://www.w3.org/Graphics/SVG/1.1/DTD/svg11.dtd"><svg t="1720506457330" class="icon" viewBox="0 0 1024 1024" version="1.1" xmlns="http://www.w3.org/2000/svg" p-id="46987" xmlns:xlink="http://www.w3.org/1999/xlink" width="16" height="16"><path d="M0 0h1024v1024H0z" fill-opacity="0" p-id="46988" fill="#AFB1B3"></path><path d="M832 64a128 128 0 0 1 128 128v640a128 128 0 0 1-128 128H192a128 128 0 0 1-128-128V192a128 128 0 0 1 128-128z m0 64H192a64 64 0 0 0-64 56.32V832a64 64 0 0 0 56.32 64H832a64 64 0 0 0 64-56.32V192a64 64 0 0 0-56.32-64z" fill="#AFB1B3" p-id="46989"></path><path d="M768 64v256a128 128 0 0 1-128 128H384a128 128 0 0 1-128-128V64z m-64 64H320v192a64 64 0 0 0 56.32 64H640a64 64 0 0 0 64-56.32V128z" fill="#AFB1B3" p-id="46990"></path><path d="M608 192a32 32 0 0 1 32 32v64a32 32 0 0 1-32 32 32 32 0 0 1-32-32v-64a32 32 0 0 1 32-32z" fill="#AFB1B3" p-id="46991"></path></svg>