<?xml version="1.0" standalone="no"?><!DOCTYPE svg PUBLIC "-//W3C//DTD SVG 1.1//EN" "http://www.w3.org/Graphics/SVG/1.1/DTD/svg11.dtd"><svg t="1699255975617" class="icon" viewBox="0 0 1024 1024" version="1.1" xmlns="http://www.w3.org/2000/svg" p-id="38839" xmlns:xlink="http://www.w3.org/1999/xlink" width="16" height="16"><path d="M888.9 1024H135.1c-74.4 0-135-60.6-135-135V225c0-74.4 60.6-135 135-135h753.7c74.4 0 135 60.6 135 135v664c0.1 74.4-60.5 135-134.9 135zM135.1 180c-24.8 0-45 20.2-45 45v664c0 24.8 20.2 45 45 45h753.7c24.8 0 45-20.2 45-45V225c0-24.8-20.2-45-45-45H135.1z" p-id="38840" fill="#AFB1B3"></path><path d="M302.5 271c-24.9 0-45-20.1-45-45V47c0-24.9 20.1-45 45-45s45 20.1 45 45v179c0 24.9-20.1 45-45 45zM721.5 271c-24.9 0-45-20.1-45-45V47c0-24.9 20.1-45 45-45s45 20.1 45 45v179c0 24.9-20.1 45-45 45zM45 336h934v90H45z" p-id="38841" fill="#AFB1B3"></path><path d="M538 661h-52c-24.9 0-45-20.1-45-45s20.1-45 45-45h52c24.9 0 45 20.1 45 45s-20.1 45-45 45zM778.5 661h-52c-24.9 0-45-20.1-45-45s20.1-45 45-45h52c24.9 0 45 20.1 45 45s-20.1 45-45 45zM297.5 661h-52c-24.9 0-45-20.1-45-45s20.1-45 45-45h52c24.9 0 45 20.1 45 45s-20.1 45-45 45zM538 811h-52c-24.9 0-45-20.1-45-45s20.1-45 45-45h52c24.9 0 45 20.1 45 45s-20.1 45-45 45zM778.5 811h-52c-24.9 0-45-20.1-45-45s20.1-45 45-45h52c24.9 0 45 20.1 45 45s-20.1 45-45 45zM297.5 811h-52c-24.9 0-45-20.1-45-45s20.1-45 45-45h52c24.9 0 45 20.1 45 45s-20.1 45-45 45z" p-id="38842" fill="#AFB1B3"></path></svg>
