<?xml version="1.0" standalone="no"?><!DOCTYPE svg PUBLIC "-//W3C//DTD SVG 1.1//EN" "http://www.w3.org/Graphics/SVG/1.1/DTD/svg11.dtd"><svg t="1698929195879" class="icon" viewBox="0 0 1024 1024" version="1.1" xmlns="http://www.w3.org/2000/svg" p-id="31857" xmlns:xlink="http://www.w3.org/1999/xlink" width="16" height="16"><path d="M160 64h704c53 0 96 43 96 96v704c0 53-43 96-96 96H160c-53 0-96-43-96-96V160c0-53 43-96 96-96z m668.2 385.8l-89.2-232.8c-1.8-4.6-5.2-8.6-9.2-11.2-3.2-2-6.8-3.2-10.4-3.6-3.6-0.4-7.4 0.2-10.8 1.4-3.4 1.4-6.6 3.4-9 6.2-2.4 2.8-4.2 6-5.2 9.6L634 403.8H388.2l-58.4-184.4c-1-3.6-3-6.8-5.4-9.6-4.2-2.6-5.6-4.8-9-6-5.2-1.4-7.2-3.6-10.8-1.6-3.6 0.4-7.2 1.6-10.4 3.6-4 2.6-7.2 6.6-9 11.2L195.88 449.8l-0.94 2.4a165.88 165.88 0 0 0-4.5 105c9.92 34.6 30.8 65 59.5 86.6l0.34 0.2 0.76 0.6 135.76 101.8 108.4 81.8c3 2 10.6 5.6 16.6 5.6 6 0 12-3.6 16.8-5.6l108.2-81.8 136.8-102.4 0.4-0.2c28.8-21.8 49.6-52.2 59.6-86.6 9.8-34.6 6.6-71.4-4.6-105l-0.8-2.4z" p-id="31858" fill="#AFB1B3"></path></svg>
