<?xml version="1.0" standalone="no"?><!DOCTYPE svg PUBLIC "-//W3C//DTD SVG 1.1//EN" "http://www.w3.org/Graphics/SVG/1.1/DTD/svg11.dtd"><svg t="1698983560386" class="icon" viewBox="0 0 1153 1024" version="1.1" xmlns="http://www.w3.org/2000/svg" p-id="54717" xmlns:xlink="http://www.w3.org/1999/xlink" width="144.125" height="128"><path d="M806.4 0a89.6 89.6 0 0 1 89.5488 86.528L896 89.6v145.0624a38.4 38.4 0 0 1-76.736 2.2656L819.2 234.6624V89.6a12.8 12.8 0 0 0-11.3024-12.7104L806.4 76.8H89.6a12.8 12.8 0 0 0-12.7104 11.3024L76.8 89.6v716.8a12.8 12.8 0 0 0 11.3024 12.7104L89.6 819.2h120.2432a38.4 38.4 0 0 1 2.2528 76.736l-2.2528 0.064H89.6a89.6 89.6 0 0 1-89.5488-86.528L0 806.4V89.6a89.6 89.6 0 0 1 86.528-89.5488L89.6 0h716.8z" fill="#AFB1B3" p-id="54718"></path><path d="M886.0288 614.8096a38.4 38.4 0 0 1 32.3072 43.648C896.9728 801.5616 774.4 908.8 629.0944 908.8c-85.632 0-164.864-37.3504-219.4944-99.776V844.8a38.4 38.4 0 0 1-36.1472 38.336L371.2 883.2a38.4 38.4 0 0 1-38.336-36.1472L332.8 844.8V716.8a38.4 38.4 0 0 1 36.1472-38.336L371.2 678.4h128a38.4 38.4 0 0 1 2.2528 76.736L499.2 755.2h-34.5856c40.384 48.0256 99.968 76.8 164.48 76.8 107.008 0 197.504-79.1552 213.2864-184.8832a38.4 38.4 0 0 1 43.648-32.3072zM625.216 320C710.8608 320 790.144 357.3888 844.8 419.968L844.8 396.8a38.4 38.4 0 0 1 36.1472-38.336L883.2 358.4a38.4 38.4 0 0 1 38.336 36.1472L921.6 396.8v128a38.4 38.4 0 0 1-36.1472 38.336L883.2 563.2H755.2a38.4 38.4 0 0 1-2.2528-76.736L755.2 486.4h44.416c-40.192-55.6928-104.4096-89.6-174.4-89.6-111.4496 0-204.3648 85.76-214.6688 197.056a38.4 38.4 0 0 1-76.48-7.0784C348.032 436.1984 473.8816 320 625.216 320z" fill="#AFB1B3" p-id="54719"></path></svg>