<svg xmlns="http://www.w3.org/2000/svg" width="16px" height="16px" viewBox="0 0 2048 2048">
	<circle fill-opacity="0.6" r="896" cx="1024" cy="1024" fill="#ddee5d"></circle>
	<g transform="scale(0.68)"><path fill-opacity="0.7" transform="translate(308.25, 2149.92) rotate(180) scale(-1, 1)" fill="#7aff8a" d="M655 -27q-7 0 -20 -1t-21 -1q-250 0 -373.5 192t-123.5 582q0 391 123.5 583t375.5 192q253 0 376.5 -192t123.5 -583q0 -294 -68.5 -473.5t-207.5 -251.5l200 -190l-151 -100zM905 745q0 329 -67.5 470t-221.5 141q-153 0 -220.5 -141t-67.5 -470q0 -328 67.5 -469 t220.5 -141q154 0 221.5 140.5t67.5 469.5z"></path><path fill-opacity="0.7" transform="translate(1541.25, 2149.92) rotate(180) scale(-1, 1)" fill="#7aff8a" d="M436 166q255 0 356 125.5t101 453.5q0 331 -100.5 456.5t-356.5 125.5h-96v-1161h96zM440 1493q342 0 504 -182t162 -566q0 -382 -162 -563.5t-504 -181.5h-303v1493h303z"></path></g>
</svg>