<?xml version="1.0" standalone="no"?><!DOCTYPE svg PUBLIC "-//W3C//DTD SVG 1.1//EN" "http://www.w3.org/Graphics/SVG/1.1/DTD/svg11.dtd"><svg t="1712630401835" class="icon" viewBox="0 0 1024 1024" version="1.1" xmlns="http://www.w3.org/2000/svg" p-id="34938" xmlns:xlink="http://www.w3.org/1999/xlink" width="32" height="32"><path d="M436.957328 560.375276h-91.841031l-22.597793 75.302646h-42.295869l87.501454-263.974221h48.045309l87.501454 263.974221h-44.095693z m-10.089014-32.626814l-10.398985-35.526531c-8.999121-28.677199-16.848355-58.074329-25.097549-87.85142H389.961918c-7.499268 30.127058-15.748462 59.174221-24.347623 87.85142l-10.798945 35.526531zM534.317821 589.422439V349.875832h40.896006v241.696397c0 11.098916 4.999512 15.04853 10.049018 15.048531a28.497217 28.497217 0 0 0 6.799336-0.729929l5.349478 31.196953c-4.999512 1.799824-12.148814 3.229685-22.197832 3.229685-29.747095 0.009999-40.896006-18.988146-40.896006-50.89503zM647.566761 571.124226V471.45396H618.939557v-30.856987l30.447026-2.14979 4.629548-54.484679h34.796602v54.504677h51.30499v32.996778h-51.30499v99.990235c0 23.677688 8.249194 35.876496 28.697198 35.876496a58.584279 58.584279 0 0 0 21.147934-4.679543l7.549263 30.497022c-11.148911 3.57965-24.397617 7.149302-38.746216 7.149302-44.44566 0.029997-59.894151-27.577307-59.894151-69.173245z" fill="#AFB1B3" p-id="34939"></path><path d="M871.614881 255.975002v512.029998H154.814881V255.975002h699.731667m68.263334-51.195H103.619881v614.419998h819.2V204.8z" fill="#AFB1B3" p-id="34940"></path></svg>