<?xml version="1.0" standalone="no"?><!DOCTYPE svg PUBLIC "-//W3C//DTD SVG 1.1//EN" "http://www.w3.org/Graphics/SVG/1.1/DTD/svg11.dtd"><svg t="1712643483514" class="icon" viewBox="0 0 1991 1024" version="1.1" xmlns="http://www.w3.org/2000/svg" p-id="2313" xmlns:xlink="http://www.w3.org/1999/xlink" width="62.21875" height="32"><path d="M446.407111 55.978667c98.872889 0 182.727111 26.282667 250.311111 78.848 67.584 52.565333 107.633778 123.904 120.149334 212.764444h-98.872889c-12.515556-65.080889-45.056-115.143111-95.118223-150.186667-48.810667-33.792-107.633778-50.062222-177.720888-50.062222-103.879111 0-183.978667 36.295111-240.298667 108.885334-52.565333 67.584-78.848 156.444444-78.848 267.832888 0 111.388444 25.031111 200.248889 77.596444 265.329778 55.068444 68.835556 133.916444 103.879111 239.047111 103.879111 71.338667 0 131.413333-18.773333 181.475556-56.32 52.565333-40.049778 88.860444-98.872889 106.382222-176.469333h98.872889c-20.024889 103.879111-66.332444 185.230222-140.174222 242.801778-68.835556 53.816889-151.438222 81.351111-246.556445 81.351111-138.922667 0-245.304889-46.307556-319.146666-137.671111C55.921778 764.359111 23.381333 656.725333 23.381333 524.060444c0-132.664889 33.792-241.550222 102.627556-326.656C201.102222 102.286222 308.736 55.978667 446.407111 55.978667z m685.852445 55.068444v209.009778h160.199111V403.911111h-160.199111v411.761778c0 23.779556 3.754667 41.301333 13.767111 51.313778 8.760889 10.012444 25.031111 16.270222 47.559111 16.270222h82.602666V967.111111h-97.621333c-52.565333 0-91.363556-13.767111-113.891555-41.301333-21.276444-25.031111-31.288889-61.326222-31.288889-110.136889V403.911111h-130.161778V320.056889h130.161778V152.348444l98.872889-41.301333z m555.690666 191.488c35.043556 0 65.080889 5.006222 88.860445 15.018667v100.124444a326.200889 326.200889 0 0 0-96.369778-13.767111c-50.062222 0-92.615111 21.276444-126.407111 66.332445-35.043556 42.552889-51.313778 93.866667-51.313778 153.941333V967.111111h-98.872889V320.056889h98.872889v112.64c17.521778-37.546667 40.049778-67.584 67.584-88.860445a179.996444 179.996444 0 0 1 117.646222-41.301333zM1880.689778 55.978667h98.872889V967.111111h-98.872889V55.978667z" fill="#AFB1B3" p-id="2314"></path></svg>