<svg xmlns="http://www.w3.org/2000/svg" width="16" height="16"><path d="M7.996 15c-.374 0-.749-.03-1.116-.09l.161-.987a5.972 5.972 0 0 0 1.873.006l.153.988A6.995 6.995 0 0 1 7.996 15Zm3.154-.749-.449-.894a5.96 5.96 0 0 0 1.522-1.093l.703.711a6.958 6.958 0 0 1-1.776 1.275Zm-6.342-.023-.031-.016a7.006 7.006 0 0 1-1.741-1.275l.709-.706a5.97 5.97 0 0 0 1.487 1.09l-.424.907Zm9.411-3.016-.889-.459c.291-.562.489-1.16.591-1.778l.986.162a7.003 7.003 0 0 1-.689 2.075Zm-12.463-.048a6.987 6.987 0 0 1-.671-2.08l.988-.155c.097.621.291 1.221.576 1.784l-.893.451Zm12.177-4.062a6.032 6.032 0 0 0-.567-1.787l.895-.447c.328.657.551 1.358.661 2.084l-.988.15ZM2.074 7.056l-.987-.157a6.95 6.95 0 0 1 .679-2.079l.891.455a5.967 5.967 0 0 0-.582 1.781ZM12.276 3.79a5.971 5.971 0 0 0-1.509-1.112l.398-.919.06.031a6.978 6.978 0 0 1 1.762 1.299l-.712.702Zm-8.52-.034-.707-.707a6.97 6.97 0 0 1 1.77-1.285l.454.891a6.019 6.019 0 0 0-1.517 1.101Zm3.299-1.681-.158-.987a6.969 6.969 0 0 1 2.186-.004l-.154.988a6.01 6.01 0 0 0-1.874.003Z" fill="#afb1b3"/><circle cx="9.923" cy="5.831" r="1.833" fill="#afb1b3"/><circle cx="5.16" cy="7.419" r="1.833" fill="#afb1b3"/><circle cx="8.917" cy="10.75" r="1.833" fill="#afb1b3"/></svg>