<svg id="图层_1" data-name="图层 1" xmlns="http://www.w3.org/2000/svg" viewBox="0 0 42 42"><defs><style>.cls-1{fill:#cbcbcb;}</style></defs><path class="cls-1" d="M41.5,23.06l-4.2,4.2-4-2.34,1.86-1.86a1.62,1.62,0,0,0,0-2.3l-6.29-6.3a1.64,1.64,0,0,0-2.3,0l-.84.83a1.69,1.69,0,0,0-.47,1.16v1.62a3.88,3.88,0,0,1,0,.68,1.58,1.58,0,0,1-.56,1.11l-6.21-3.64,5.85-5.85.92-.95,1.31-1.31a1.62,1.62,0,0,1,2.3,0L41.5,20.79A1.58,1.58,0,0,1,41.5,23.06Z"/><path class="cls-1" d="M14.92,9.91a2.22,2.22,0,0,1-.65,1.58l-1.43,1.43-4-2.33,2.26-2.26a2.26,2.26,0,0,1,3.16,0A2.22,2.22,0,0,1,14.92,9.91Z"/><path class="cls-1" d="M39.05,31.58l-3.83-2.24-4-2.34-6-3.5-3-1.75-2.56-1.5-3-1.75-6-3.5-4-2.34L3,10.42a1.41,1.41,0,0,0-.71-.2A1.44,1.44,0,0,0,1,10.93a1.41,1.41,0,0,0,.51,1.93l3.19,1.87L.5,18.94a1.58,1.58,0,0,0,0,2.27L13.16,33.89a1.62,1.62,0,0,0,2.3,0l1.31-1.31.92-1,5.85-5.85,5.62,3.3L27.73,30.5a2.24,2.24,0,0,0,3.16,3.17l2.26-2.26L37.61,34a1.48,1.48,0,0,0,.72.2,1.42,1.42,0,0,0,.72-2.64ZM16.77,23.25a3.77,3.77,0,0,0,0,.67v1.63a1.67,1.67,0,0,1-.47,1.15l-.84.83a1.62,1.62,0,0,1-2.3,0L6.83,21.24a1.62,1.62,0,0,1,0-2.3L8.7,17.07l8.64,5.07A1.52,1.52,0,0,0,16.77,23.25Z"/></svg>