<?xml version="1.0" standalone="no"?><!DOCTYPE svg PUBLIC "-//W3C//DTD SVG 1.1//EN"
        "http://www.w3.org/Graphics/SVG/1.1/DTD/svg11.dtd">
<svg t="1700020679366" class="icon" viewBox="0 0 1024 1024" version="1.1" xmlns="http://www.w3.org/2000/svg" p-id="1291"
     xmlns:xlink="http://www.w3.org/1999/xlink" width="16" height="16">
    <path d="M899.925333 899.925333l-60.330666 60.330667L732.586667 853.333333 170.666667 853.333333a85.333333 85.333333 0 0 1-85.333334-85.333333V341.333333a85.333333 85.333333 0 0 1 55.381334-79.914666L85.333333 205.994667l60.330667-60.330667 754.261333 754.261333z m37.162667-575.018666c1.024 5.333333 1.578667 10.794667 1.578667 16.426666v426.666667c0 14.464-3.584 28.074667-9.941334 40.021333L853.333333 732.629333V408.576l83.754667-83.626667zM412.672 533.333333L220.629333 341.333333H170.666667v426.666667h476.629333L533.333333 653.952l-48.512 48.512-86.485333 15.274667a42.666667 42.666667 0 0 1-49.450667-49.450667l15.274667-86.485333L412.672 533.333333z m529.066667-408.362666a85.333333 85.333333 0 0 1 0 120.661333L653.952 533.333333 533.333333 412.629333l197.162667-197.12 120.704 120.661334 60.330667-60.373334-120.661334-120.661333 30.165334-30.165333a85.333333 85.333333 0 0 1 120.661333 0z m-358.058667 130.986666l-85.376 85.333334h-36.352l-85.333333-85.333334h207.061333z"
          fill="#797979" p-id="1292"></path>
</svg>