<svg xmlns="http://www.w3.org/2000/svg" fill="none" version="1.1" width="16"
     height="16" viewBox="0 0 694 709">
    <g>
        <g>
<!--            <g>-->
<!--                <path d="M620.015599029541,244.67426327514647C613.248599029541,223.3082632751465,576.1915990295411,162.75926327514648,576.1915990295411,162.75926327514648C567.620599029541,150.6233632751465,568.651599029541,122.80176327514648,568.651599029541,122.80176327514648L573.613599029541,83.16726327514648C578.833599029541,52.892653275146486,528.5655990295411,54.700091275146484,528.5655990295411,54.700091275146484C418.877599029541,52.95720327514648,340.768599029541,62.317143275146485,311.638599029541,66.51296327514649C308.996599029541,66.90026327514649,306.41859902954104,67.28756327514648,303.775599029541,67.73946327514648C300.68259902954105,68.25586327514648,299.006599029541,68.51406327514648,299.006599029541,68.51406327514648C239.84459902954103,79.48776327514648,185.516599029541,108.66496327514648,143.49749902954102,152.1080632751465C101.478299029541,195.55126327514648,73.83069902954102,251.0652632751465,64.35707902954101,311.0332632751465C54.883439029541016,371.00126327514647,64.03484902954102,432.4542632751465,90.58679902954101,486.9352632751465C117.13879902954102,541.4172632751465,159.73799902954102,586.2152632751465,212.584599029541,615.2632632751465C265.430599029541,644.2472632751465,325.816599029541,655.9952632751465,385.558599029541,648.8952632751465C445.300599029541,641.7942632751465,501.304599029541,616.1032632751464,546.030599029541,575.5002632751465C590.692599029541,534.8322632751465,621.819599029541,481.2552632751465,635.031599029541,421.9972632751465C648.307599029541,362.6742632751465,643.087599029541,300.7692632751465,620.015599029541,244.67426327514647Z"-->
<!--                      fill="#000" fill-opacity="1"/>-->
<!--            </g>-->
            <g>
                <path d="M205.043184967041,629.0780830993652C250.349184967041,653.9310830993652,300.230184967041,666.7120830993653,351.14318496704095,666.7120830993653C363.195184967041,666.7120830993653,375.31118496704096,666.0020830993652,387.42718496704094,664.5170830993652C450.64918496704104,656.9650830993652,509.166184967041,630.2400830993653,556.6631849670409,587.1200830993653C604.031184967041,544.0000830993652,636.448184967041,488.0980830993652,650.433184967041,425.41908309936525C664.418184967041,362.7400830993652,659.069184967041,298.3820830993652,634.837184967041,239.18908309936523C627.232184967041,216.20808309936524,593.527184967041,160.82308309936525,589.660184967041,154.49708309936523L589.080184967041,153.65808309936523C585.9221849670411,149.20408309936522,584.117184967041,134.61548309936524,584.375184967041,124.02908309936524L589.209184967041,85.42738309936524C591.0131849670411,74.32458309936524,588.306184967041,64.31908309936523,581.411184967041,56.37928309936524C566.137184967041,38.885898099365235,535.525184967041,38.69224425936523,528.436184967041,38.885898099365235C417.84518496704095,37.20756309936523,338.44718496704104,46.696603099365234,309.31718496704104,50.892483099365236C306.546184967041,51.344283099365235,303.90418496704103,51.73158309936524,301.19718496704104,52.18348309936523L296.170184967041,53.02268309936524C233.39918496704098,64.64188309936523,176.75118496704098,95.11008309936523,132.21828496704097,141.13508309936523C87.68578496704099,187.16008309936524,58.87808496704099,245.06308309936523,48.82446496704099,308.58108309936523C38.770794967040985,372.10008309936524,48.37333496704099,436.13508309936526,76.47208496704098,493.84308309936523C104.57078496704099,551.5520830993653,149.03918496704097,598.2870830993652,205.043184967041,629.0780830993652ZM313.89318496704095,82.13498309936523C339.86518496704093,78.39098309936523,407.276184967041,70.25748309936523,501.88418496704094,70.25748309936523C510.45518496704096,70.25748309936523,519.284184967041,70.32208309936523,528.500184967041,70.58028309936523L529.274184967041,70.58028309936523C539.843184967041,70.32208309936523,554.150184967041,72.96868309936524,557.8881849670411,77.29358309936524C558.210184967041,77.68088309936523,558.661184967041,78.26188309936524,558.275184967041,80.65028309936523L553.183184967041,120.99488309936524L553.054184967041,122.35038309936523C552.861184967041,127.83728309936524,552.345184967041,155.72308309936523,563.108184967041,171.53808309936522C573.291184967041,188.19308309936523,600.1001849670411,233.70108309936523,605.127184967041,249.58108309936523L605.578184967041,250.80708309936523C627.490184967041,304.19108309936524,632.3881849670411,362.2230830993652,619.757184967041,418.70508309936525C607.190184967041,474.99408309936524,578.060184967041,525.2150830993653,535.525184967041,563.9460830993652C492.92618496704097,602.6120830993652,440.40218496704097,626.6250830993653,383.75318496704097,633.3390830993652C326.97618496704104,640.0520830993653,270.392184967041,629.0780830993652,220.188184967041,601.5150830993653C169.920184967041,573.8870830993652,130.027284967041,531.9280830993653,104.76418496704099,480.0940830993652C79.50118496704098,428.2590830993652,70.92978496704099,370.67908309936524,79.95228496704098,313.55108309936526C88.97478496704099,256.4880830993652,114.88238496704099,204.46008309936522,154.83918496704098,163.14708309936523C194.796184967041,121.83398309936524,245.64418496704099,94.46428309936523,301.45518496704096,84.13608309936524L306.482184967041,83.29688309936523C308.99518496704104,82.84498309936524,311.444184967041,82.52228309936524,313.89318496704095,82.13498309936523Z"
                      fill-rule="evenodd" fill="#797979" fill-opacity="1"/>
            </g>
        </g>
        <g>
            <path d="M549.2670537109375,356.74931518554683Q549.2670537109375,361.5313151855469,549.0250537109375,366.3073151855469Q548.7830537109376,371.0833151855469,548.2990537109375,375.8423151855469Q547.8160537109375,380.60131518554687,547.0920537109375,385.3313151855469Q546.3680537109375,390.0623151855469,545.4060537109375,394.7523151855469Q544.4440537109375,399.4423151855469,543.2450537109376,404.08031518554685Q542.0470537109375,408.71931518554686,540.6150537109374,413.2953151855469Q539.1840537109375,417.8713151855469,537.5220537109375,422.37331518554686Q535.8600537109376,426.8763151855469,533.9730537109375,431.29431518554685Q532.0850537109375,435.71231518554686,529.9760537109375,440.0353151855469Q527.8680537109375,444.3573151855469,525.5430537109376,448.57531518554686Q523.2170537109375,452.7923151855469,520.6820537109375,456.8943151855469Q518.1460537109375,460.9953151855469,515.4060537109375,464.97131518554687Q512.6660537109375,468.94731518554687,509.7280537109375,472.7883151855469Q506.7890537109375,476.6293151855469,503.6600537109375,480.3263151855469Q500.5310537109375,484.02231518554686,497.2190537109375,487.56531518554686Q493.9070537109375,491.10931518554685,490.4190537109375,494.4903151855469Q486.9310537109375,497.87131518554685,483.2770537109375,501.0833151855469Q479.6220537109375,504.29431518554685,475.8100537109375,507.3283151855469Q471.9970537109375,510.36131518554686,468.0350537109375,513.2103151855468Q464.0740537109375,516.0583151855469,459.9730537109375,518.7153151855468Q455.8720537109375,521.3723151855469,451.6410537109375,523.8303151855469Q447.4110537109375,526.2893151855469,443.0610537109375,528.5433151855468Q438.7110537109375,530.797315185547,434.2520537109375,532.8423151855468Q429.7930537109375,534.8863151855469,425.2360537109375,536.7163151855468Q420.6800537109375,538.5463151855469,416.0360537109375,540.1573151855468Q411.3920537109375,541.768315185547,406.6720537109375,543.1563151855469Q401.9520537109375,544.5443151855468,397.1680537109375,545.7063151855468Q392.3830537109375,546.8683151855469,387.5460537109375,547.8013151855469Q382.7080537109375,548.7343151855468,377.8290537109375,549.4363151855468Q372.9500537109375,550.1373151855469,368.04205371093747,550.6063151855469Q363.1330537109375,551.0753151855469,358.2070537109375,551.3093151855469Q353.2810537109375,551.5443151855468,348.3480537109375,551.5443151855468Q343.4160537109375,551.5443151855468,338.4900537109375,551.3093151855469Q333.56305371093754,551.0753151855469,328.6550537109375,550.6063151855469Q323.74605371093753,550.1373151855469,318.8680537109375,549.4363151855468Q313.98905371093747,548.7343151855468,309.1510537109375,547.8013151855469Q304.3140537109375,546.8683151855469,299.5290537109375,545.7063151855468Q294.7450537109375,544.5443151855468,290.0250537109375,543.1563151855469Q285.3050537109375,541.768315185547,280.6610537109375,540.1573151855468Q276.0170537109375,538.5463151855469,271.4600537109375,536.7163151855468Q266.9030537109375,534.8863151855469,262.4450537109375,532.8423151855468Q257.9860537109375,530.797315185547,253.63605371093752,528.5433151855468Q249.2860537109375,526.2893151855469,245.0557537109375,523.8303151855469Q240.8251537109375,521.3723151855469,236.72415371093751,518.7153151855468Q232.62315371093752,516.0583151855469,228.6614537109375,513.2103151855468Q224.6998537109375,510.36131518554686,220.8871537109375,507.3283151855469Q217.07445371093752,504.29431518554685,213.4198537109375,501.0833151855469Q209.7653537109375,497.87131518554685,206.2776537109375,494.4903151855469Q202.7900537109375,491.10931518554685,199.4777537109375,487.56531518554686Q196.1654537109375,484.02231518554686,193.0364537109375,480.3263151855469Q189.9074537109375,476.6293151855469,186.9692537109375,472.7883151855469Q184.0311537109375,468.94731518554687,181.29095371093752,464.97131518554687Q178.5506537109375,460.9953151855469,176.0149537109375,456.8943151855469Q173.47925371093748,452.7923151855469,171.1542537109375,448.57531518554686Q168.8291537109375,444.3573151855469,166.7203537109375,440.0353151855469Q164.6115537109375,435.71231518554686,162.7240537109375,431.29431518554685Q160.8365537109375,426.8763151855469,159.1749537109375,422.37331518554686Q157.5132537109375,417.8713151855469,156.0815337109375,413.2953151855469Q154.6497737109375,408.71931518554686,153.4513237109375,404.08031518554685Q152.2528837109375,399.4423151855469,151.2906437109375,394.7523151855469Q150.3284037109375,390.0623151855469,149.6046937109375,385.3313151855469Q148.8809737109375,380.60131518554687,148.3975307109375,375.8423151855469Q147.9140837109375,371.0833151855469,147.6720687109375,366.3073151855469Q147.4300537109375,361.5313151855469,147.4300537109375,356.74931518554683Q147.4300537109375,351.9673151855469,147.6720687109375,347.19131518554684Q147.9140837109375,342.4153151855469,148.3975307109375,337.6563151855469Q148.8809737109375,332.89731518554686,149.6046937109375,328.16731518554684Q150.3284037109375,323.43631518554685,151.2906437109375,318.7463151855469Q152.2528837109375,314.05631518554685,153.4513237109375,309.4183151855469Q154.6497737109375,304.77931518554686,156.0815337109375,300.2033151855469Q157.5132537109375,295.6273151855469,159.1749537109375,291.12531518554687Q160.8365537109375,286.6223151855469,162.7240537109375,282.2043151855469Q164.6115537109375,277.78631518554687,166.7203537109375,273.4633151855469Q168.8291537109375,269.1413151855469,171.1542537109375,264.92331518554687Q173.47925371093748,260.7063151855469,176.0149537109375,256.60471518554687Q178.5506537109375,252.50311518554687,181.29095371093752,248.52701518554687Q184.0311537109375,244.55101518554687,186.9692537109375,240.71011518554687Q189.9074537109375,236.86921518554686,193.0364537109375,233.17271518554688Q196.1654537109375,229.4762151855469,199.4777537109375,225.93301518554688Q202.7900537109375,222.38981518554687,206.2776537109375,219.00841518554688Q209.7653537109375,215.62711518554687,213.4198537109375,212.41571518554687Q217.07445371093752,209.20441518554688,220.8871537109375,206.17071518554687Q224.6998537109375,203.13711518554686,228.6614537109375,200.28851518554688Q232.62315371093752,197.43991518554688,236.72415371093751,194.78321518554688Q240.8251537109375,192.12651518554688,245.0557537109375,189.66811518554687Q249.2860537109375,187.20961518554688,253.63605371093752,184.9555151855469Q257.9860537109375,182.7013151855469,262.4450537109375,180.6567151855469Q266.9030537109375,178.6122151855469,271.4600537109375,176.78221518554687Q276.0170537109375,174.95221518554686,280.6610537109375,173.34121518554687Q285.3050537109375,171.73025518554687,290.0250537109375,170.34212518554688Q294.7450537109375,168.9539951855469,299.5290537109375,167.79207518554688Q304.3140537109375,166.63015518554687,309.1510537109375,165.69724518554688Q313.98905371093747,164.76433518554688,318.8680537109375,164.06267518554688Q323.74605371093753,163.36101518554688,328.6550537109375,162.8923061855469Q333.56305371093754,162.42359318554688,338.4900537109375,162.18895418554686Q343.4160537109375,161.95431518554688,348.3480537109375,161.95431518554688Q353.2810537109375,161.95431518554688,358.2070537109375,162.18895418554686Q363.1330537109375,162.42359318554688,368.04205371093747,162.8923061855469Q372.9500537109375,163.36101518554688,377.8290537109375,164.06267518554688Q382.7080537109375,164.76433518554688,387.5460537109375,165.69724518554688Q392.3830537109375,166.63015518554687,397.1680537109375,167.79207518554688Q401.9520537109375,168.9539951855469,406.6720537109375,170.34212518554688Q411.3920537109375,171.73025518554687,416.0360537109375,173.34121518554687Q420.6800537109375,174.95221518554686,425.2360537109375,176.78221518554687Q429.7930537109375,178.6122151855469,434.2520537109375,180.6567151855469Q438.7110537109375,182.7013151855469,443.0610537109375,184.9555151855469Q447.4110537109375,187.20961518554688,451.6410537109375,189.66811518554687Q455.8720537109375,192.12651518554688,459.9730537109375,194.78321518554688Q464.0740537109375,197.43991518554688,468.0350537109375,200.28851518554688Q471.9970537109375,203.13711518554686,475.8100537109375,206.17071518554687Q479.6220537109375,209.20441518554688,483.2770537109375,212.41571518554687Q486.9310537109375,215.62711518554687,490.4190537109375,219.00841518554688Q493.9070537109375,222.38981518554687,497.2190537109375,225.93301518554688Q500.5310537109375,229.4762151855469,503.6600537109375,233.17271518554688Q506.7890537109375,236.86921518554686,509.7280537109375,240.71011518554687Q512.6660537109375,244.55101518554687,515.4060537109375,248.52701518554687Q518.1460537109375,252.50311518554687,520.6820537109375,256.60471518554687Q523.2170537109375,260.7063151855469,525.5430537109376,264.92331518554687Q527.8680537109375,269.1413151855469,529.9760537109375,273.4633151855469Q532.0850537109375,277.78631518554687,533.9730537109375,282.2043151855469Q535.8600537109376,286.6223151855469,537.5220537109375,291.12531518554687Q539.1840537109375,295.6273151855469,540.6150537109374,300.2033151855469Q542.0470537109375,304.77931518554686,543.2450537109376,309.4183151855469Q544.4440537109375,314.05631518554685,545.4060537109375,318.7463151855469Q546.3680537109375,323.43631518554685,547.0920537109375,328.16731518554684Q547.8160537109375,332.89731518554686,548.2990537109375,337.6563151855469Q548.7830537109376,342.4153151855469,549.0250537109375,347.19131518554684Q549.2670537109375,351.9673151855469,549.2670537109375,356.74931518554683Z"
                  fill="#797979" fill-opacity="1"/>
        </g>
        <g>
            <path d="M519.6009715576172,355.84920153808594Q519.6009715576172,359.99120153808593,519.3929715576172,364.12720153808596Q519.1849715576172,368.2642015380859,518.7699715576172,372.38520153808594Q518.3539715576171,376.50720153808595,517.7329715576172,380.60320153808595Q517.1109715576172,384.70020153808593,516.2839715576172,388.76220153808595Q515.4569715576172,392.8232015380859,514.4269715576172,396.8412015380859Q513.3979715576172,400.85820153808595,512.1669715576172,404.8212015380859Q510.9369715576172,408.78420153808594,509.5099715576172,412.68320153808594Q508.0819715576172,416.583201538086,506.45997155761717,420.40920153808594Q504.8379715576172,424.2352015380859,503.0259715576172,427.97920153808593Q501.2139715576172,431.72320153808596,499.21697155761717,435.37520153808595Q497.2189715576172,439.0282015380859,495.0399715576172,442.58020153808593Q492.8619715576172,446.13220153808595,490.5069715576172,449.57520153808593Q488.1529715576172,453.01920153808595,485.6279715576172,456.3452015380859Q483.1039715576172,459.6722015380859,480.4149715576172,462.87320153808594Q477.72697155761716,466.07420153808596,474.8809715576172,469.1432015380859Q472.0349715576172,472.21220153808594,469.0379715576172,475.14020153808593Q466.0409715576172,478.06820153808593,462.9009715576172,480.8502015380859Q459.7609715576172,483.6312015380859,456.4849715576172,486.2582015380859Q453.2089715576172,488.88520153808594,449.8049715576172,491.3522015380859Q446.4009715576172,493.81920153808596,442.8779715576172,496.12020153808595Q439.3539715576172,498.42120153808594,435.7189715576172,500.55020153808596Q432.0839715576172,502.6792015380859,428.34697155761717,504.63220153808595Q424.6089715576172,506.58420153808595,420.7779715576172,508.35520153808596Q416.9469715576172,510.12520153808595,413.0319715576172,511.7102015380859Q409.1159715576172,513.295201538086,405.12597155761716,514.690201538086Q401.13597155761715,516.0852015380859,397.0809715576172,517.288201538086Q393.02497155761716,518.490201538086,388.9139715576172,519.4962015380859Q384.8029715576172,520.502201538086,380.6469715576172,521.310201538086Q376.4899715576172,522.1182015380859,372.2979715576172,522.7262015380859Q368.1059715576172,523.334201538086,363.8889715576172,523.7392015380859Q359.6709715576172,524.145201538086,355.43897155761715,524.3492015380859Q351.2059715576172,524.5522015380859,346.96797155761715,524.5522015380859Q342.7299715576172,524.5522015380859,338.4969715576172,524.3492015380859Q334.2639715576172,524.145201538086,330.0469715576172,523.7392015380859Q325.8289715576172,523.334201538086,321.6369715576172,522.7262015380859Q317.4449715576172,522.1182015380859,313.2889715576172,521.310201538086Q309.1319715576172,520.502201538086,305.0209715576172,519.4962015380859Q300.9109715576172,518.490201538086,296.8549715576172,517.288201538086Q292.7999715576172,516.0852015380859,288.8099715576172,514.690201538086Q284.8189715576172,513.295201538086,280.9039715576172,511.7102015380859Q276.9889715576172,510.12520153808595,273.15767155761716,508.35520153808596Q269.3266715576172,506.58420153808595,265.5891715576172,504.63220153808595Q261.8516715576172,502.6792015380859,258.2166715576172,500.55020153808596Q254.5816715576172,498.42120153808594,251.05807155761718,496.12020153808595Q247.5343715576172,493.81920153808596,244.13047155761717,491.3522015380859Q240.72647155761717,488.88520153808594,237.4505715576172,486.2582015380859Q234.1746715576172,483.6312015380859,231.0345715576172,480.8502015380859Q227.89447155761718,478.06820153808593,224.8977715576172,475.14020153808593Q221.9011715576172,472.21220153808594,219.0551715576172,469.1432015380859Q216.2091715576172,466.07420153808596,213.5206715576172,462.87320153808594Q210.8321715576172,459.6722015380859,208.3076715576172,456.3452015380859Q205.78307155761718,453.01920153808595,203.42867155761718,449.57520153808593Q201.07417155761718,446.13220153808595,198.89547155761718,442.58020153808593Q196.7167715576172,439.0282015380859,194.71907155761718,435.37520153808595Q192.72127155761717,431.72320153808596,190.9093715576172,427.97920153808593Q189.09737155761718,424.2352015380859,187.47567155761718,420.40920153808594Q185.8538715576172,416.583201538086,184.42617155761718,412.684201538086Q182.9984515576172,408.78420153808594,181.7682515576172,404.8212015380859Q180.5380515576172,400.85820153808595,179.5083215576172,396.8412015380859Q178.4786015576172,392.8232015380859,177.65182155761718,388.76220153808595Q176.8250515576172,384.70020153808593,176.20322155761718,380.60320153808595Q175.5813915576172,376.50720153808595,175.1660035576172,372.38520153808594Q174.75061655761718,368.2642015380859,174.54267255761718,364.12720153808596Q174.33472815761718,359.99120153808593,174.3347282576172,355.84920153808594Q174.33472815761718,351.708201538086,174.54267255761718,347.57220153808595Q174.75061655761718,343.43520153808595,175.1660035576172,339.31420153808597Q175.5813915576172,335.1922015380859,176.20322155761718,331.09620153808595Q176.8250515576172,326.9992015380859,177.65182155761718,322.9372015380859Q178.4786015576172,318.87520153808595,179.5083215576172,314.85820153808595Q180.5380515576172,310.84120153808595,181.7682515576172,306.87820153808593Q182.9984515576172,302.91520153808597,184.42617155761718,299.01520153808593Q185.8538715576172,295.11620153808593,187.47567155761718,291.29020153808597Q189.09737155761718,287.46420153808594,190.9093715576172,283.72000153808597Q192.72127155761717,279.97620153808595,194.71907155761718,276.32380153808595Q196.7167715576172,272.67140153808595,198.89547155761718,269.1192015380859Q201.07417155761718,265.56700153808595,203.42867155761718,262.12360153808595Q205.78307155761718,258.6801015380859,208.3076715576172,255.35370153808594Q210.8321715576172,252.02730153808594,213.5206715576172,248.82590153808593Q216.2091715576172,245.62460153808593,219.0551715576172,242.55600153808592Q221.9011715576172,239.48740153808595,224.8977715576172,236.55900153808594Q227.89447155761718,233.63060153808595,231.0345715576172,230.84940153808594Q234.1746715576172,228.06820153808593,237.4505715576172,225.44090153808594Q240.72647155761717,222.81360153808595,244.13047155761717,220.34660153808593Q247.5343715576172,217.87950153808595,251.05807155761718,215.57870153808594Q254.58177155761717,213.27780153808595,258.2166715576172,211.14870153808593Q261.8516715576172,209.01960153808594,265.5891715576172,207.06740153808593Q269.3266715576172,205.11510153808592,273.15767155761716,203.34440153808595Q276.9889715576172,201.57380153808595,280.9039715576172,199.98890153808594Q284.8189715576172,198.40410153808594,288.8099715576172,197.00886153808594Q292.7999715576172,195.61366153808595,296.8549715576172,194.41147153808595Q300.9109715576172,193.20928153808595,305.0209715576172,192.20300153808594Q309.1319715576172,191.19672153808594,313.2889715576172,190.38877153808593Q317.4449715576172,189.58082153808593,321.6369715576172,188.97315153808594Q325.8289715576172,188.36548153808593,330.0469715576172,187.95954953808592Q334.2639715576172,187.55362053808594,338.4969715576172,187.35041053808592Q342.7299715576172,187.14720153808594,346.96797155761715,187.14720153808594Q351.2059715576172,187.14720153808594,355.43897155761715,187.35041053808592Q359.6709715576172,187.55362053808594,363.8889715576172,187.95954953808592Q368.1059715576172,188.36548153808593,372.2979715576172,188.97315153808594Q376.4899715576172,189.58082153808593,380.6469715576172,190.38877153808593Q384.8029715576172,191.19672153808594,388.9139715576172,192.20300153808594Q393.02497155761716,193.20928153808595,397.0809715576172,194.41147153808595Q401.13597155761715,195.61366153808595,405.12597155761716,197.00886153808594Q409.1159715576172,198.40410153808594,413.0319715576172,199.98890153808594Q416.9469715576172,201.57380153808595,420.7779715576172,203.34440153808595Q424.6089715576172,205.11510153808592,428.34697155761717,207.06740153808593Q432.0839715576172,209.01960153808594,435.7189715576172,211.14870153808593Q439.3539715576172,213.27780153808595,442.8779715576172,215.57870153808594Q446.4009715576172,217.87950153808595,449.8049715576172,220.34660153808593Q453.2089715576172,222.81360153808595,456.4849715576172,225.44090153808594Q459.7609715576172,228.06820153808593,462.9009715576172,230.84940153808594Q466.0409715576172,233.63060153808595,469.0379715576172,236.55900153808594Q472.0349715576172,239.48740153808595,474.8809715576172,242.55600153808592Q477.72697155761716,245.62460153808593,480.4149715576172,248.82590153808593Q483.1039715576172,252.02730153808594,485.6279715576172,255.35370153808594Q488.1529715576172,258.6801015380859,490.5069715576172,262.12360153808595Q492.8619715576172,265.56700153808595,495.0399715576172,269.1192015380859Q497.2189715576172,272.67140153808595,499.21697155761717,276.32380153808595Q501.2139715576172,279.97620153808595,503.0259715576172,283.72000153808597Q504.8379715576172,287.46420153808594,506.45997155761717,291.29020153808597Q508.0819715576172,295.11620153808593,509.5099715576172,299.01520153808593Q510.9369715576172,302.91520153808597,512.1669715576172,306.87820153808593Q513.3979715576172,310.84120153808595,514.4269715576172,314.85820153808595Q515.4569715576172,318.87520153808595,516.2839715576172,322.9372015380859Q517.1109715576172,326.9992015380859,517.7319715576173,331.09620153808595Q518.3539715576171,335.1922015380859,518.7699715576172,339.31420153808597Q519.1849715576172,343.43520153808595,519.3929715576172,347.57220153808595Q519.6009715576172,351.708201538086,519.6009715576172,355.84920153808594Z"
                  fill="#000" fill-opacity="1"/>
        </g>
        <g>
            <path d="M442.4808911621094,417.4824470214844C438.0296911621094,417.4824470214844,433.51389116210936,415.92444702148435,429.90139116210935,412.6784470214844C407.1292911621094,392.4913470214844,377.1964911621094,376.45834702148437,376.93849116210936,376.3285470214844C371.3260811621094,373.3425470214844,367.5199811621094,367.6953470214844,366.8748791621094,361.33404702148437C366.2297771621094,354.9727470214844,368.81018116210936,348.6763470214844,373.71296116210937,344.6518470214844C409.58069116210936,314.9874470214844,437.25549116210937,304.7963470214844,438.4166911621094,304.3419670214844C448.28679116210935,300.7718570214844,459.18899116210935,305.9647570214844,462.7370911621094,315.89614702148435C466.2850911621094,325.82754702148435,461.1887911621094,336.73264702148435,451.3187911621094,340.3027470214844C450.93169116210936,340.4326470214844,438.4811911621094,345.23604702148435,419.90229116210935,357.6340470214844C430.7399911621094,364.7094470214844,443.51299116210936,373.79694702148436,454.9958911621094,384.0529470214844C462.86609116210934,391.0633470214844,463.57569116210936,403.13684702148436,456.67309116210936,411.05644702148436C452.99599116210936,415.34044702148435,447.70619116210935,417.4824470214844,442.4808911621094,417.4824470214844Z"
                  fill="#797979" fill-opacity="1"/>
        </g>
        <g>
            <path d="M274.6333875732422,424.6802292480469L274.6333875732422,424.6802292480469C254.5506875732422,424.6802292480469,238.2253875732422,408.37822924804686,238.2253875732422,388.3240292480469L238.2253875732422,333.27232924804684C238.2253875732422,313.2182292480469,254.5506875732422,296.9162292480469,274.6333875732422,296.9162292480469L274.6333875732422,296.9162292480469C294.71618757324217,296.9162292480469,311.0414875732422,313.2182292480469,311.0414875732422,333.27232924804684L311.0414875732422,388.3240292480469C310.9766875732422,408.44322924804686,294.71618757324217,424.6802292480469,274.6333875732422,424.6802292480469Z"
                  fill="#797979" fill-opacity="1"/>
        </g>
    </g>
</svg>
