<svg id="图层_1" data-name="图层 1" xmlns="http://www.w3.org/2000/svg" viewBox="0 0 42 42">
    <defs>
        <style>.cls-1{fill:#cbcbcb;}</style>
    </defs>
    <path class="cls-1"
          d="M41.5,23.06,30.89,33.67a2.26,2.26,0,0,1-3.16,0h0a2.24,2.24,0,0,1,0-3.16l7.44-7.45a1.62,1.62,0,0,0,0-2.3l-6.29-6.29a1.62,1.62,0,0,0-2.3,0l-.84.83a1.65,1.65,0,0,0-.47,1.15v1.63a3.82,3.82,0,0,1,0,.67,1.61,1.61,0,0,1-1.63,1.5H18.33a1.62,1.62,0,0,1-1.15-2.75h0l7.13-7.12.92-1,1.31-1.31a1.62,1.62,0,0,1,2.3,0L41.5,20.79A1.58,1.58,0,0,1,41.5,23.06Z"/>
    <path class="cls-1"
          d="M.5,18.94,11.11,8.33a2.26,2.26,0,0,1,3.16,0h0a2.24,2.24,0,0,1,0,3.16L6.83,18.94a1.62,1.62,0,0,0,0,2.3l6.29,6.29a1.62,1.62,0,0,0,2.3,0l.84-.83a1.65,1.65,0,0,0,.47-1.15V23.92a3.82,3.82,0,0,1,0-.67,1.61,1.61,0,0,1,1.63-1.5h5.27a1.62,1.62,0,0,1,1.15,2.75h0l-7.13,7.12-.92,1-1.31,1.31a1.62,1.62,0,0,1-2.3,0L.5,21.21A1.58,1.58,0,0,1,.5,18.94Z"/>
</svg>