<?xml version="1.0" standalone="no"?><!DOCTYPE svg PUBLIC "-//W3C//DTD SVG 1.1//EN" "http://www.w3.org/Graphics/SVG/1.1/DTD/svg11.dtd"><svg t="1712908583368" class="icon" viewBox="0 0 1024 1024" version="1.1" xmlns="http://www.w3.org/2000/svg" p-id="28754" xmlns:xlink="http://www.w3.org/1999/xlink" width="32" height="32"><path d="M847.279158 522.024421H323.476211v-215.578947H323.368421a180.655158 180.655158 0 0 1 180.439579-177.690948 180.493474 180.493474 0 0 1 180.170105 174.403369 46.511158 46.511158 0 1 0 92.806737-5.012211 271.252211 271.252211 0 0 0-79.76421-182.218105A271.252211 271.252211 0 0 0 503.915789 35.947789 271.252211 271.252211 0 0 0 310.810947 115.873684a271.467789 271.467789 0 0 0-79.979789 190.356211v215.740631H161.145263a53.517474 53.517474 0 0 0-53.355789 53.35579v377.263158c0 29.372632 24.037053 53.355789 53.355789 53.355789h686.349474c29.372632 0 53.355789-23.983158 53.355789-53.355789v-377.155369a53.786947 53.786947 0 0 0-53.571368-53.463579zM550.265263 789.989053a24.576 24.576 0 0 1 0.10779 2.856421v74.913684a46.295579 46.295579 0 0 1-46.18779 46.241684 46.295579 46.295579 0 0 1-46.187789-46.187789V792.791579c0-1.024 0-1.994105 0.107789-2.856421a93.938526 93.938526 0 1 1 140.126316-81.92c-0.053895 35.193263-19.294316 65.859368-47.966316 81.92z" fill="#AFB1B3" p-id="28755"></path></svg>