<?xml version="1.0" standalone="no"?><!DOCTYPE svg PUBLIC "-//W3C//DTD SVG 1.1//EN" "http://www.w3.org/Graphics/SVG/1.1/DTD/svg11.dtd"><svg t="1712815846660" class="icon" viewBox="0 0 1024 1024" version="1.1" xmlns="http://www.w3.org/2000/svg" p-id="20381" xmlns:xlink="http://www.w3.org/1999/xlink" width="32" height="32"><path d="M863.48816 269.056c0-71.68-58.624-130.304-130.304-130.304H610.04816a18.355 18.355 0 0 1-18.432-18.432V84.224c0-32-25.6-54.272-54.272-54.272H341.24816c-39.936 0-72.704 32.768-72.704 72.704v17.664a18.355 18.355 0 0 1-18.432 18.432h-142.08C47.61616 142.336 0.00016 190.208 0.00016 250.624v119.04a18.355 18.355 0 0 0 18.432 18.432h827.136A18.355 18.355 0 0 0 864.00016 369.664l-0.512-100.608zM520.19216 141.824H344.57616a18.355 18.355 0 0 1-18.432-18.432v-10.496c0-15.872 12.8-28.672 25.6-28.672h160c15.616 0 25.344 12.288 25.6 27.904v1.536l0.768 7.68c1.28 11.008-7.168 20.48-17.92 20.48zM377.60016 474.368c0 32 25.6 54.272 54.272 54.272s54.272-25.6 54.272-54.272c0-5.12-0.768-10.24-2.304-15.104-2.048-7.936-9.472-13.568-17.664-13.568h-68.864c-8.448 0-15.616 5.632-17.664 13.568-1.28 5.12-2.048 9.984-2.048 15.104z m639.488 73.728c-9.728-25.6-108.544 150.272-185.6 79.872-76.8-70.4 89.6-185.6 64-191.744-54.272-12.8-115.2 6.4-156.672 51.2-41.984 48.128-52.992 116.224-30.208 172.032 2.56 6.4 1.28 14.08-3.584 19.2l-193.28 211.712c-22.272 25.6-22.272 64 3.328 86.272 25.6 22.272 64 22.272 86.272-3.328L794.88016 761.344c4.864-5.12 11.776-7.168 18.688-5.12 58.112 16.896 123.392 0 168.448-48.128 38.144-45.056 50.944-109.056 35.072-160zM569.34416 944.384c-6.144 9.216-18.432 9.728-27.904 0.768-0.512-0.512-1.28-1.024-1.792-1.536-8.448-6.4-8.192-18.176 0-27.136 0.512-0.512 1.024-1.28 1.536-1.792 6.4-8.448 18.176-8.192 27.136 0 0.512 0.512 1.28 1.024 1.792 1.536 8.96 6.656 8.448 18.944-0.768 28.16z" p-id="20382" fill="#AFB1B3"></path><path d="M662.01616 579.84c0-43.52 14.336-80.896 38.144-112.128 6.912-9.216 0.256-22.016-11.008-22.016H553.98416c-7.936 0-14.336 6.912-13.824 14.848 0.256 5.12 0.256 10.24 0.256 15.36 0 58.368-45.056 107.52-103.424 110.336-63.232 3.072-114.176-49.152-114.176-111.872 0-4.608 0-9.472 0.256-14.08 0.512-7.936-5.632-14.848-13.824-14.848H14.08016A13.767 13.767 0 0 0 0.25616 459.264v289.792c0 64 47.872 111.872 108.544 111.872h371.712c3.584 0 7.168-1.536 9.728-4.096l187.136-187.136c4.096-4.096 5.12-10.496 2.56-15.872-10.496-20.48-17.92-45.824-17.92-73.984z" p-id="20383" fill="#AFB1B3"></path></svg>