<?xml version="1.0" standalone="no"?><!DOCTYPE svg PUBLIC "-//W3C//DTD SVG 1.1//EN" "http://www.w3.org/Graphics/SVG/1.1/DTD/svg11.dtd"><svg t="1715163775139" class="icon" viewBox="0 0 1024 1024" version="1.1" xmlns="http://www.w3.org/2000/svg" p-id="14065" xmlns:xlink="http://www.w3.org/1999/xlink" width="16" height="16"><path d="M628.543996 442.858667q0-61.717333-30.570667-96.576t-84.288-34.858667q-36.010667 0-70.848 17.429333t-62.848 48.277333-45.418667 78.293333-17.429333 102.848q0 64 30.570667 98.858667t85.994667 34.858667q54.848 0 100.565333-37.994667t69.994667-94.848 24.277333-116.288zM950.826663 512q0 63.424-21.141333 112.576t-56.277333 77.141333-75.136 42.581333-82.858667 15.722667q-3.434667 0-8.853333 0.277333t-9.429333 0.277333q-54.293333 0-81.152-30.293333-16-18.858667-18.858667-47.424-29.717333 37.717333-75.136 62.848t-99.136 25.152q-91.989333 0-142.570667-54.570667t-50.581333-154.005333q0-89.706667 37.717333-165.717333t102.293333-120.277333 140.565333-44.288q49.706667 0 88.576 20.288t60.565333 56.853333l1.152-10.858667 6.293333-32q0.576-3.434667 3.136-6.848t5.418667-3.434667l67.434667 0q2.858667 0 7.424 6.293333 2.858667 2.858667 1.706667 9.152l-68.565333 350.848q-2.858667 13.717333-2.858667 27.434667 0 22.293333 7.146667 29.717333t25.429333 7.424q16-0.576 32.576-3.136t41.706667-13.717333 44.010667-28.565333 32.576-51.136 13.717333-78.293333q0-166.848-99.434667-266.282667t-266.282667-99.434667q-74.282667 0-141.994667 29.141333t-116.565333 77.994667-77.994667 116.565333-29.141333 141.994667 29.141333 141.994667 77.994667 116.565333 116.565333 77.994667 141.994667 29.141333q130.282667 0 231.424-82.282667 6.293333-5.141333 13.717333-4.565333t12.010667 6.848l23.424 28.010667q4.565333 6.848 4.010667 13.717333-1.152 7.424-6.848 12.565333-58.282667 47.424-130.005333 73.152t-147.712 25.706667q-89.152 0-170.282667-34.858667t-140.010667-93.717333-93.717333-140.010667-34.858667-170.282667 34.858667-170.282667 93.717333-140.010667 140.010667-93.717333 170.282667-34.858667q196.565333 0 317.717333 121.152t121.152 317.717333z" fill="#AFB1B3" p-id="14066"></path></svg>