<?xml version="1.0" standalone="no"?><!DOCTYPE svg PUBLIC "-//W3C//DTD SVG 1.1//EN" "http://www.w3.org/Graphics/SVG/1.1/DTD/svg11.dtd"><svg t="1715078715519" class="icon" viewBox="0 0 1024 1024" version="1.1" xmlns="http://www.w3.org/2000/svg" p-id="8468" xmlns:xlink="http://www.w3.org/1999/xlink" width="16" height="16"><path d="M192 352a32 32 0 0 1 32-32h640a32 32 0 0 1 0 64h-640a32 32 0 0 1-32-32z" p-id="8469" fill="#AFB1B3"></path><path d="M440.96 134.272a32 32 0 0 1 25.088 37.632l-141.056 705.28a32 32 0 1 1-62.72-12.544L403.328 159.36a32 32 0 0 1 37.632-25.088zM735.36 134.272a32 32 0 0 1 25.088 37.632L619.52 877.184a32 32 0 1 1-62.784-12.544l141.056-705.28a32 32 0 0 1 37.632-25.088z" p-id="8470" fill="#AFB1B3"></path><path d="M128 608a32 32 0 0 1 32-32h640a32 32 0 0 1 0 64h-640a32 32 0 0 1-32-32z" p-id="8471" fill="#AFB1B3"></path></svg>