<?xml version="1.0" standalone="no"?><!DOCTYPE svg PUBLIC "-//W3C//DTD SVG 1.1//EN" "http://www.w3.org/Graphics/SVG/1.1/DTD/svg11.dtd"><svg t="1714360612868" class="icon" viewBox="0 0 1024 1024" version="1.1" xmlns="http://www.w3.org/2000/svg" p-id="42739" width="16" height="16" xmlns:xlink="http://www.w3.org/1999/xlink"><path d="M118.592 242.816A165.632 165.632 0 0 1 284.16 77.184h455.552c22.848 0 41.408 18.56 41.408 41.408v538.368a41.408 41.408 0 0 1-41.408 41.408H284.16a82.816 82.816 0 0 0 0 165.632h538.368v-704a41.408 41.408 0 0 1 82.816 0v745.408c0 22.848-18.56 41.408-41.408 41.408H284.224a165.632 165.632 0 0 1-165.632-165.632m0-538.368v538.368z" fill="#3BB35B" p-id="42740"></path><path d="M263.552 781.184c0-22.848 18.56-41.408 41.408-41.408h414.08a41.408 41.408 0 0 1 0 82.816h-414.08a41.408 41.408 0 0 1-41.408-41.408z" fill="#3BB35B" fill-opacity=".5" p-id="42741"></path></svg>