<?xml version="1.0" standalone="no"?><!DOCTYPE svg PUBLIC "-//W3C//DTD SVG 1.1//EN" "http://www.w3.org/Graphics/SVG/1.1/DTD/svg11.dtd"><svg t="1720603034721" class="icon" viewBox="0 0 1024 1024" version="1.1" xmlns="http://www.w3.org/2000/svg" p-id="7276" xmlns:xlink="http://www.w3.org/1999/xlink" width="16" height="16"><path d="M0 122.88C0 55.0144 55.0144 0 122.88 0h578.56c67.8656 0 122.88 55.0144 122.88 122.88v89.6a40.96 40.96 0 0 1-81.92 0V122.88a40.96 40.96 0 0 0-40.96-40.96H122.88a40.96 40.96 0 0 0-40.96 40.96v696.32a40.96 40.96 0 0 0 40.96 40.96h153.6a40.96 40.96 0 0 1 0 81.92H122.88c-67.8656 0-122.88-55.0144-122.88-122.88V122.88z" p-id="7277" fill="#3BB35B"></path><path d="M163.84 240.64a40.96 40.96 0 0 1 40.96-40.96h414.72a40.96 40.96 0 0 1 0 81.92H204.8a40.96 40.96 0 0 1-40.96-40.96zM204.8 404.48a40.96 40.96 0 1 0 0 81.92h76.8a40.96 40.96 0 1 0 0-81.92H204.8z" p-id="7278" fill="#3BB35B"></path><path d="M399.36 675.84c0 152.69376 123.78624 276.48 276.48 276.48s276.48-123.78624 276.48-276.48-123.78624-276.48-276.48-276.48-276.48 123.78624-276.48 276.48z m624.64 0c0 192.2816-155.8784 348.16-348.16 348.16s-348.16-155.8784-348.16-348.16 155.8784-348.16 348.16-348.16 348.16 155.8784 348.16 348.16z m-190.3872 23.00928c16.2048-11.0592 16.2048-34.95936 0-46.01856l-209.96096-143.2576c-18.48832-12.61568-43.55072 0.62464-43.55072 23.00416v286.52544c0 22.37952 25.0624 35.61984 43.55072 23.00416l209.96096-143.2576z" p-id="7279" fill="#3BB35B"></path></svg>