<?xml version="1.0" encoding="UTF-8"?>
<svg width="15px" height="15px" viewBox="0 0 150 150" version="1.1" xmlns="http://www.w3.org/2000/svg" xmlns:xlink="http://www.w3.org/1999/xlink">
    <title>插入代码</title>
    <defs>
        <linearGradient x1="100%" y1="0%" x2="0%" y2="100%" id="linearGradient-1">
            <stop stop-color="#AFB1B3" offset="0%"></stop>
            <stop stop-color="#AFB1B3" offset="100%"></stop>
        </linearGradient>
        <path d="M108.90245,9.26922367 L13.1732898,9.26922367 C10.6955861,9.26922367 9.05591715,10.6933942 9.05591715,13.125 L9.05591715,136.464544 C9.05591715,139.265244 10.7176511,140.347082 13.1732898,140.347082 L136.79036,140.347082 C139.803109,140.347082 140.873664,138.97083 140.873664,136.168959 L140.873664,111.09375 C140.873664,108.007263 143.466243,106.738055 145.362526,106.738055 C147.242027,106.738055 150,108.223229 149.964006,111.09375 C149.964006,121.807941 149.964006,130.166344 149.964006,136.168959 C149.964006,145.172882 145.634312,150 136.79036,150 L13.1732898,150 C6.10837898,150 0,145.040467 0,136.464544 L0,13.125 C0,6.09375 5.21492346,0 13.1732898,0 L108.90245,0 C111.251827,0 113.735404,1.6069221 113.735404,4.66796295 C113.735404,7.72900379 111.251827,9.26922367 108.90245,9.26922367 Z M29.6233166,70.1578771 L75.9849867,33.8956464 C77.3878614,32.4828322 79.7426869,33.8956464 79.7426869,35.7793986 L79.7426869,59.7972398 C116.267533,59.7972398 138.179494,49.4865417 150,24 C150,24 147.18088,90.4082138 79.7426869,90.4082138 L79.7426869,112.542303 C79.7426869,114.426055 77.4045623,115.838869 75.9849867,114.426055 L29.6233166,78.1638242 C26.8175671,76.280072 26.8175671,72.0416294 29.6233166,70.1578771 Z" id="path-2"></path>
    </defs>
    <g id="插入代码" stroke="none" stroke-width="1" fill="none" fill-rule="evenodd">
        <g id="形状" fill-rule="nonzero">
            <use fill="#000000" xlink:href="#path-2"></use>
            <use fill="url(#linearGradient-1)" xlink:href="#path-2"></use>
        </g>
    </g>
</svg>
