<?xml version="1.0" standalone="no"?><!DOCTYPE svg PUBLIC "-//W3C//DTD SVG 1.1//EN"
        "http://www.w3.org/Graphics/SVG/1.1/DTD/svg11.dtd">
<svg t="1710228356186" class="icon" viewBox="0 0 1024 1024" version="1.1" xmlns="http://www.w3.org/2000/svg" p-id="7351"
     id="mx_n_1710228356186" width="16" height="16" xmlns:xlink="http://www.w3.org/1999/xlink">
    <path d="M61.44 122.92096A122.83904 122.83904 0 0 1 184.32 0h532.48a40.96 40.96 0 0 1 28.95872 12.00128l204.8 204.8A40.96 40.96 0 0 1 962.56 245.76v655.5648c0 67.74784-55.11168 122.6752-122.88 122.6752H184.32a122.88 122.88 0 0 1-122.88-122.92096V122.92096z m819.2 139.79648L699.84256 81.92H184.29952C161.64864 81.92 143.36 100.22912 143.36 122.92096v778.15808A40.96 40.96 0 0 0 184.32 942.08h655.36c22.56896 0 40.96-18.30912 40.96-40.7552V262.71744zM307.2 512a40.96 40.96 0 0 1 40.7552-40.96h328.0896c22.50752 0 40.7552 18.18624 40.7552 40.96a40.96 40.96 0 0 1-40.7552 40.96H347.9552A40.7552 40.7552 0 0 1 307.2 512z m204.8-204.8a40.96 40.96 0 0 1 40.96 40.7552v328.0896c0 22.50752-18.18624 40.7552-40.96 40.7552a40.96 40.96 0 0 1-40.96-40.7552V347.9552c0-22.50752 18.18624-40.7552 40.96-40.7552z"
          fill="#4DF837" p-id="7352"></path>
</svg>