<?xml version="1.0" standalone="no"?><!DOCTYPE svg PUBLIC "-//W3C//DTD SVG 1.1//EN" "http://www.w3.org/Graphics/SVG/1.1/DTD/svg11.dtd"><svg t="1716951139163" class="icon" viewBox="0 0 1024 1024" version="1.1" xmlns="http://www.w3.org/2000/svg" p-id="4119" xmlns:xlink="http://www.w3.org/1999/xlink" width="256" height="256"><path d="M68.832 95.2a38.4 38.4 0 0 1 54.336 0L932.8 904.864a38.4 38.4 0 0 1-54.304 54.304L68.8 149.504a38.4 38.4 0 0 1 0-54.304z" p-id="4120" fill="#AFB1B3"></path><path d="M175.744 256.32l54.912 54.944a343.68 343.68 0 0 0-62.144 162.368h152.192c0.864-23.04 2.496-45.6 4.832-67.456l144.224 144.192h-72.16c1.344 31.648 4.32 61.888 8.576 90.24a422.464 422.464 0 0 1 141.984-11.872l123.968 124.032-3.648 11.84c-8.096 25.024-17.472 47.968-28 68.32a344.32 344.32 0 0 0 72.256-39.584l54.912 54.944A420.544 420.544 0 0 1 512 934.4C278.72 934.4 89.6 745.28 89.6 512c0-91.936 29.376-176.96 79.232-246.336l6.912-9.344zM512 704c-31.04 0-61.376 4.096-90.464 11.968 22.848 86.176 57.952 141.632 90.464 141.632s67.616-55.456 90.432-141.6A344.224 344.224 0 0 0 512 704z m-162.56 40.544l-4.224 2.272c-17.728 9.792-34.592 21.12-50.432 33.952a344.096 344.096 0 0 0 88.736 52.16c-13.28-25.664-24.736-55.424-34.08-88.384zM512 89.6c233.28 0 422.4 189.12 422.4 422.4a420.48 420.48 0 0 1-81.28 249.184l-55.136-55.136a343.36 343.36 0 0 0 55.936-143.36l1.6-12.32h-152.224a974.08 974.08 0 0 1-3.776 57.184L565.568 473.6h60.8c-1.056-25.28-3.2-49.696-6.144-72.96l-2.4-17.248-10.72 2.656a423.84 423.84 0 0 1-119.104 10.08l-133.504-133.568c6.912-21.76 14.72-41.92 23.456-60.224l5.568-11.264-2.016 0.832c-22.464 9.152-43.776 20.608-63.584 34.08L262.816 170.88A420.48 420.48 0 0 1 512 89.6z m-191.296 460.8H168.512a343.936 343.936 0 0 0 72.064 175.552 420.8 420.8 0 0 1 91.712-58.72 920.8 920.8 0 0 1-11.584-116.832z m462.72-252.352l-8.096 6.656a421.568 421.568 0 0 1-83.616 52.064c6.144 36.736 10.048 76 11.584 116.832h152.192a343.776 343.776 0 0 0-64.896-166.176l-7.168-9.376zM512 166.4c-32.512 0-67.616 55.456-90.432 141.6a346.496 346.496 0 0 0 180.896 0.032c-22.144-83.52-55.808-138.176-87.456-141.472L512 166.4z m128.48 24.64l0.384 0.832c13.12 25.472 24.416 54.944 33.696 87.584 19.264-10.24 37.568-22.4 54.656-36.224a344.128 344.128 0 0 0-88.736-52.16z" p-id="4121" fill="#AFB1B3"></path></svg>