<?xml version="1.0" standalone="no"?><!DOCTYPE svg PUBLIC "-//W3C//DTD SVG 1.1//EN" "http://www.w3.org/Graphics/SVG/1.1/DTD/svg11.dtd"><svg t="1720692359907" class="icon" viewBox="0 0 1024 1024" version="1.1" xmlns="http://www.w3.org/2000/svg" p-id="4454" xmlns:xlink="http://www.w3.org/1999/xlink" width="17" height="17"><path d="M832 96A96 96 0 0 1 928 192v640a96 96 0 0 1-96 96H192A96 96 0 0 1 96 832V192A96 96 0 0 1 192 96z m0 64H192A32 32 0 0 0 160 192v640A32 32 0 0 0 192 864h640a32 32 0 0 0 32-32V192A32 32 0 0 0 832 160z m-117.333333 149.333333v64h-170.666667v362.666667h-64v-362.666667h-170.666667v-64h405.333334z" fill="#AFB1B3" p-id="4455"></path></svg>
